<svg width="193" height="96" viewBox="0 0 193 96" fill="none" xmlns="http://www.w3.org/2000/svg">
<rect width="193" height="96" rx="5" fill="white"/>
<path fill-rule="evenodd" clip-rule="evenodd" d="M118.725 62.4336C119.208 62.4336 119.38 62.5399 119.38 63.0881V66.0587C119.38 66.6005 119.208 66.7368 118.725 66.7368H118.389V62.4336H118.725ZM153.376 65.3078C153.859 65.3078 154.007 65.4274 154.007 65.9558V67.0724C154.007 67.597 153.859 67.72 153.376 67.72H152.893V65.3078H153.376ZM115.286 63.1078C115.286 62.5695 115.464 62.4336 115.939 62.4336H116.285V66.7368H115.939C115.464 66.7368 115.286 66.6103 115.286 66.0686V63.1078ZM74.6672 72H160V57.8081H74.6672V72ZM83.9329 60.111H81.7677V63.6761H80.6548V60.111H78.4914V69.3517H80.6548V65.3078H81.7677V69.3517H83.9329V60.111ZM101.869 60.1041H96.678V69.3585H101.869V67.6038H98.9098V65.4274H101.558V63.6761H98.9098V61.8554H101.869V60.1041ZM121.477 63.1712C121.477 61.2836 120.556 60.8053 118.389 60.8053V60.111H116.285V60.8053C114.114 60.8053 113.185 61.2836 113.185 63.1712V66.0587C113.185 67.933 114.153 68.4379 116.285 68.4379V69.3517H118.389V68.4379C120.521 68.4379 121.477 67.933 121.477 66.0587V63.1712ZM138.116 60.1041H132.668V61.8554H134.425V69.3585H136.482V61.8554H138.116V60.1041ZM156.168 66.0189C156.168 64.1711 155.381 63.6761 153.258 63.6761H152.893V60.111H150.729V69.3517H152.893C155.245 69.3517 156.168 68.9929 156.168 66.9695V66.0189ZM68.9594 50.7173V65.2778C65.0652 69.4082 59.5236 72 53.3693 72C41.572 72 32 62.4932 32 50.7705C32 39.0542 41.572 29.5478 53.3693 29.5478V45.5072C50.2996 45.5072 47.2283 46.67 44.8865 48.996C44.3271 49.5477 43.8373 50.1426 43.4127 50.7705C40.2696 55.4058 40.7577 61.7525 44.8865 65.8526C47.2283 68.1722 50.2996 69.3418 53.3693 69.3418C56.4239 69.3418 59.4823 68.1889 61.8224 65.8791C61.834 65.8658 61.846 65.8594 61.8589 65.8496V65.8427L61.889 65.8195C64.2359 63.4901 64.2359 59.7055 61.889 57.3829C59.5421 55.0501 55.7428 55.0501 53.3976 57.3829C53.3826 57.3894 53.3762 57.3962 53.3693 57.4061V50.7173H68.9594ZM66.3014 22.0048C67.5904 27.6572 67.5668 31.1327 67.0073 35.0969C65.9929 42.2344 62.7432 47.6901 61.336 49.5211C60.3696 48.2781 58.8911 45.743 57.905 43.3775C57.905 43.3775 56.0393 38.875 55.5465 34.4887C55.0532 30.0994 55.265 25.6402 56.7023 20.6191C58.0197 16.1072 60.6047 12.0531 61.3128 11C61.7571 11.7475 65.0067 16.3498 66.3014 22.0048ZM61.3128 48.1157C61.9723 46.8959 63.105 44.2214 63.0049 40.8222C62.8669 37.3531 61.6909 34.811 61.336 34.2028C60.9312 34.811 59.5687 37.7251 59.5919 41.1312C59.689 44.6432 60.6781 46.9229 61.3128 48.1157ZM65.928 31.6012C65.9679 29.4445 65.7595 25.7795 64.7038 21.9551C63.6447 18.1307 61.5908 14.4923 61.2879 14.0199C60.9862 14.4923 59.3603 17.4462 57.9247 22.0712C57.5466 23.4569 56.8656 26.4644 56.7474 29.3948C56.6091 32.95 57.092 36.4757 57.2871 37.4726C57.2871 36.2966 57.3103 32.3753 58.0399 29.1389C58.7708 25.8957 60.1599 22.1642 61.2879 20.2672C62.512 22.2641 64.046 26.5737 64.5822 29.159C65.127 31.7439 65.4098 35.0502 65.2933 37.3929C65.6199 36.0338 65.8781 33.7575 65.928 31.6012ZM154.669 29.4381H160V50.7207H155.896V37.3728H155.754L153.642 50.7207H150.364L148.258 37.3728H148.118V50.7207H144.012V29.4381H149.335L151.993 44.3941L154.669 29.4381ZM125.379 41.141C125.825 41.141 126.144 40.7489 126.144 40.0777V33.1429C126.144 32.4751 125.825 32.08 125.379 32.08H124.3V41.141H125.379ZM120.204 29.4381H126.642C129.513 29.4381 129.968 31.7508 129.968 33.2393V39.6791C129.968 41.174 129.513 43.4868 126.642 43.4868H124.3V50.7207H120.204V29.4381ZM107.754 29.4381H117.238V50.7207H113.414V32.08H111.575V50.7207H107.754V29.4381ZM99.6742 43.2678V47.2718C99.6742 47.8234 100.078 47.976 100.316 47.976C100.692 47.976 100.955 47.6404 100.955 47.2718V42.324C100.955 41.6592 100.842 40.9285 99.3163 40.9285H97.6508V38.5891H99.3747C100.545 38.5891 100.955 38.3067 100.955 37.0106V32.7773C100.955 32.4121 100.692 32.08 100.316 32.08C100.078 32.08 99.6742 32.2325 99.6742 32.7773V36.2464H95.5686V33.2393C95.5686 31.7508 95.7504 29.4381 98.615 29.4381H102.014C104.882 29.4381 105.059 31.7508 105.059 33.2393V36.6484C105.059 38.9547 103.504 39.5891 102.272 39.5295V39.7451C105.024 39.6791 105.059 41.8718 105.059 42.633V46.916C105.059 48.408 104.882 50.7207 102.014 50.7207H98.615C95.7504 50.7207 95.5686 48.408 95.5686 46.916V43.2678H99.6742ZM89.2626 42.7226L88.5597 32.08H88.3332L87.6238 42.7226H89.2626ZM85.2253 29.4381H91.6662L93.8048 50.7207H89.7941L89.4143 45.0619H87.4824L87.0944 50.7207H83.092L85.2253 29.4381ZM74.6672 29.4381H82.4874V32.08H78.7647V50.7207H74.6672V29.4381ZM138.543 29.4381C141.414 29.4381 141.594 31.7508 141.594 33.2393V46.916C141.594 48.408 141.414 50.7207 138.543 50.7207H135.151C132.285 50.7207 132.112 48.408 132.112 46.916V33.2393C132.112 31.7508 132.285 29.4381 135.151 29.4381H138.543ZM136.852 48.0891C137.346 48.0891 137.758 47.7102 137.758 47.2418L137.756 47.2152V32.95V32.887L137.749 32.8206C137.706 32.4053 137.317 32.0731 136.845 32.0731C136.375 32.0731 135.999 32.4053 135.944 32.8206V32.887V32.95V47.2152L135.937 47.2418C135.937 47.7102 136.347 48.0891 136.852 48.0891Z" fill="#0079C2"/>
</svg>
