<svg width="290" height="250" viewBox="0 0 290 250" fill="none" xmlns="http://www.w3.org/2000/svg">
<rect width="290" height="250" fill="#FFF5E4"/>
<path d="M166.818 45.4063C183.726 42.6355 198 54.3053 198 72.1843C198 83.6714 182.581 107.27 173.188 120.177C172.389 121.274 170.759 121.274 169.96 120.177C167.827 117.247 165.384 113.764 162.88 109.998M142.244 45.4063C159.114 42.642 173.426 54.2682 173.426 72.1843C173.426 84.0907 157 108.641 148.615 120.175C147.816 121.273 146.185 121.275 145.386 120.177C143.252 117.247 140.808 113.764 138.306 109.998M122.426 45.0249C107.114 45.0249 96 56.4467 96 72.1843C96 83.677 111.417 107.271 120.812 120.177C121.611 121.275 123.242 121.273 124.041 120.174C132.425 108.642 148.85 84.0879 148.85 72.1843C148.85 56.4596 137.751 45.0249 122.426 45.0249ZM122.426 83.9174C115.377 83.9174 109.636 78.1587 109.636 71.0759C109.636 63.9878 115.379 58.2322 122.426 58.2322C129.473 58.2322 135.216 63.9878 135.216 71.0759C135.216 78.1698 129.465 83.9174 122.426 83.9174Z" stroke="#F6A219" stroke-width="2"/>
<path d="M45.767 157.8H54.807V159.864H48.343V162.168H51.447C52.8017 162.168 53.831 162.451 54.535 163.016C55.2497 163.581 55.607 164.397 55.607 165.464C55.607 166.584 55.2123 167.453 54.423 168.072C53.6337 168.691 52.519 169 51.079 169H45.767V157.8ZM50.935 167.08C51.5963 167.08 52.103 166.952 52.455 166.696C52.807 166.429 52.983 166.045 52.983 165.544C52.983 164.563 52.3003 164.072 50.935 164.072H48.343V167.08H50.935ZM61.4195 169.128C60.5128 169.128 59.6968 168.941 58.9715 168.568C58.2568 168.184 57.6968 167.656 57.2915 166.984C56.8862 166.312 56.6835 165.549 56.6835 164.696C56.6835 163.843 56.8862 163.08 57.2915 162.408C57.6968 161.736 58.2568 161.213 58.9715 160.84C59.6968 160.456 60.5128 160.264 61.4195 160.264C62.3262 160.264 63.1368 160.456 63.8515 160.84C64.5662 161.213 65.1262 161.736 65.5315 162.408C65.9368 163.08 66.1395 163.843 66.1395 164.696C66.1395 165.549 65.9368 166.312 65.5315 166.984C65.1262 167.656 64.5662 168.184 63.8515 168.568C63.1368 168.941 62.3262 169.128 61.4195 169.128ZM61.4195 167.08C62.0595 167.08 62.5822 166.867 62.9875 166.44C63.4035 166.003 63.6115 165.421 63.6115 164.696C63.6115 163.971 63.4035 163.395 62.9875 162.968C62.5822 162.531 62.0595 162.312 61.4195 162.312C60.7795 162.312 60.2515 162.531 59.8355 162.968C59.4195 163.395 59.2115 163.971 59.2115 164.696C59.2115 165.421 59.4195 166.003 59.8355 166.44C60.2515 166.867 60.7795 167.08 61.4195 167.08ZM75.9873 160.392V169H73.4913V162.44H70.7713L70.6913 163.96C70.6486 165.091 70.5419 166.029 70.3713 166.776C70.2006 167.523 69.9233 168.109 69.5393 168.536C69.1553 168.963 68.6219 169.176 67.9393 169.176C67.5766 169.176 67.1446 169.112 66.6433 168.984L66.7713 166.936C66.9419 166.957 67.0646 166.968 67.1393 166.968C67.5126 166.968 67.7899 166.835 67.9713 166.568C68.1633 166.291 68.2913 165.944 68.3553 165.528C68.4193 165.101 68.4673 164.541 68.4993 163.848L68.6273 160.392H75.9873ZM86.7555 164.728C86.7555 164.76 86.7395 164.984 86.7075 165.4H80.1955C80.3128 165.933 80.5902 166.355 81.0275 166.664C81.4648 166.973 82.0088 167.128 82.6595 167.128C83.1075 167.128 83.5022 167.064 83.8435 166.936C84.1955 166.797 84.5208 166.584 84.8195 166.296L86.1475 167.736C85.3368 168.664 84.1528 169.128 82.5955 169.128C81.6248 169.128 80.7662 168.941 80.0195 168.568C79.2728 168.184 78.6968 167.656 78.2915 166.984C77.8862 166.312 77.6835 165.549 77.6835 164.696C77.6835 163.853 77.8808 163.096 78.2755 162.424C78.6808 161.741 79.2302 161.213 79.9235 160.84C80.6275 160.456 81.4115 160.264 82.2755 160.264C83.1182 160.264 83.8808 160.445 84.5635 160.808C85.2462 161.171 85.7795 161.693 86.1635 162.376C86.5582 163.048 86.7555 163.832 86.7555 164.728ZM82.2915 162.152C81.7262 162.152 81.2515 162.312 80.8675 162.632C80.4835 162.952 80.2488 163.389 80.1635 163.944H84.4035C84.3182 163.4 84.0835 162.968 83.6995 162.648C83.3155 162.317 82.8462 162.152 82.2915 162.152ZM97.0368 164.728C97.0368 164.76 97.0208 164.984 96.9888 165.4H90.4768C90.5941 165.933 90.8714 166.355 91.3088 166.664C91.7461 166.973 92.2901 167.128 92.9408 167.128C93.3888 167.128 93.7834 167.064 94.1248 166.936C94.4768 166.797 94.8021 166.584 95.1008 166.296L96.4288 167.736C95.6181 168.664 94.4341 169.128 92.8768 169.128C91.9061 169.128 91.0474 168.941 90.3008 168.568C89.5541 168.184 88.9781 167.656 88.5728 166.984C88.1674 166.312 87.9648 165.549 87.9648 164.696C87.9648 163.853 88.1621 163.096 88.5568 162.424C88.9621 161.741 89.5114 161.213 90.2048 160.84C90.9088 160.456 91.6928 160.264 92.5568 160.264C93.3994 160.264 94.1621 160.445 94.8448 160.808C95.5274 161.171 96.0608 161.693 96.4448 162.376C96.8394 163.048 97.0368 163.832 97.0368 164.728ZM92.5728 162.152C92.0074 162.152 91.5328 162.312 91.1488 162.632C90.7648 162.952 90.5301 163.389 90.4448 163.944H94.6848C94.5994 163.4 94.3648 162.968 93.9808 162.648C93.5968 162.317 93.1274 162.152 92.5728 162.152ZM106.841 157.608C108.409 157.608 109.636 158.088 110.521 159.048C111.407 159.997 111.849 161.368 111.849 163.16C111.849 164.429 111.609 165.517 111.129 166.424C110.66 167.331 109.993 168.019 109.129 168.488C108.265 168.957 107.268 169.192 106.137 169.192C105.54 169.192 104.969 169.128 104.425 169C103.881 168.861 103.417 168.669 103.033 168.424L103.993 166.52C104.537 166.893 105.236 167.08 106.089 167.08C107.039 167.08 107.791 166.803 108.345 166.248C108.9 165.683 109.199 164.872 109.241 163.816C108.569 164.488 107.641 164.824 106.457 164.824C105.743 164.824 105.092 164.68 104.505 164.392C103.919 164.104 103.455 163.699 103.113 163.176C102.772 162.643 102.601 162.029 102.601 161.336C102.601 160.589 102.788 159.933 103.161 159.368C103.535 158.803 104.041 158.371 104.681 158.072C105.332 157.763 106.052 157.608 106.841 157.608ZM107.033 162.888C107.599 162.888 108.057 162.733 108.409 162.424C108.772 162.104 108.953 161.699 108.953 161.208C108.953 160.717 108.777 160.317 108.425 160.008C108.084 159.699 107.609 159.544 107.001 159.544C106.447 159.544 105.993 159.693 105.641 159.992C105.3 160.291 105.129 160.696 105.129 161.208C105.129 161.72 105.3 162.131 105.641 162.44C105.993 162.739 106.457 162.888 107.033 162.888ZM117.893 169.192C116.965 169.192 116.138 168.963 115.413 168.504C114.687 168.045 114.117 167.384 113.701 166.52C113.295 165.645 113.093 164.605 113.093 163.4C113.093 162.195 113.295 161.16 113.701 160.296C114.117 159.421 114.687 158.755 115.413 158.296C116.138 157.837 116.965 157.608 117.893 157.608C118.821 157.608 119.647 157.837 120.373 158.296C121.098 158.755 121.663 159.421 122.069 160.296C122.485 161.16 122.693 162.195 122.693 163.4C122.693 164.605 122.485 165.645 122.069 166.52C121.663 167.384 121.098 168.045 120.373 168.504C119.647 168.963 118.821 169.192 117.893 169.192ZM117.893 167C118.575 167 119.109 166.707 119.493 166.12C119.887 165.533 120.085 164.627 120.085 163.4C120.085 162.173 119.887 161.267 119.493 160.68C119.109 160.093 118.575 159.8 117.893 159.8C117.221 159.8 116.687 160.093 116.293 160.68C115.909 161.267 115.717 162.173 115.717 163.4C115.717 164.627 115.909 165.533 116.293 166.12C116.687 166.707 117.221 167 117.893 167ZM128.752 169.192C127.824 169.192 126.997 168.963 126.272 168.504C125.547 168.045 124.976 167.384 124.56 166.52C124.155 165.645 123.952 164.605 123.952 163.4C123.952 162.195 124.155 161.16 124.56 160.296C124.976 159.421 125.547 158.755 126.272 158.296C126.997 157.837 127.824 157.608 128.752 157.608C129.68 157.608 130.507 157.837 131.232 158.296C131.957 158.755 132.523 159.421 132.928 160.296C133.344 161.16 133.552 162.195 133.552 163.4C133.552 164.605 133.344 165.645 132.928 166.52C132.523 167.384 131.957 168.045 131.232 168.504C130.507 168.963 129.68 169.192 128.752 169.192ZM128.752 167C129.435 167 129.968 166.707 130.352 166.12C130.747 165.533 130.944 164.627 130.944 163.4C130.944 162.173 130.747 161.267 130.352 160.68C129.968 160.093 129.435 159.8 128.752 159.8C128.08 159.8 127.547 160.093 127.152 160.68C126.768 161.267 126.576 162.173 126.576 163.4C126.576 164.627 126.768 165.533 127.152 166.12C127.547 166.707 128.08 167 128.752 167ZM143.711 165.736H142.415V169H139.919V160.392H142.415V163.736H143.759L146.095 160.392H148.751L145.743 164.52L148.959 169H146.015L143.711 165.736ZM158.44 160.392V169H155.944V162.44H153.224L153.144 163.96C153.102 165.091 152.995 166.029 152.824 166.776C152.654 167.523 152.376 168.109 151.992 168.536C151.608 168.963 151.075 169.176 150.392 169.176C150.03 169.176 149.598 169.112 149.096 168.984L149.224 166.936C149.395 166.957 149.518 166.968 149.592 166.968C149.966 166.968 150.243 166.835 150.424 166.568C150.616 166.291 150.744 165.944 150.808 165.528C150.872 165.101 150.92 164.541 150.952 163.848L151.08 160.392H158.44ZM160.841 160.392H163.321V165.512L167.513 160.392H169.801V169H167.321V163.88L163.145 169H160.841V160.392ZM180.568 164.728C180.568 164.76 180.552 164.984 180.52 165.4H174.008C174.125 165.933 174.403 166.355 174.84 166.664C175.277 166.973 175.821 167.128 176.472 167.128C176.92 167.128 177.315 167.064 177.656 166.936C178.008 166.797 178.333 166.584 178.632 166.296L179.96 167.736C179.149 168.664 177.965 169.128 176.408 169.128C175.437 169.128 174.579 168.941 173.832 168.568C173.085 168.184 172.509 167.656 172.104 166.984C171.699 166.312 171.496 165.549 171.496 164.696C171.496 163.853 171.693 163.096 172.088 162.424C172.493 161.741 173.043 161.213 173.736 160.84C174.44 160.456 175.224 160.264 176.088 160.264C176.931 160.264 177.693 160.445 178.376 160.808C179.059 161.171 179.592 161.693 179.976 162.376C180.371 163.048 180.568 163.832 180.568 164.728ZM176.104 162.152C175.539 162.152 175.064 162.312 174.68 162.632C174.296 162.952 174.061 163.389 173.976 163.944H178.216C178.131 163.4 177.896 162.968 177.512 162.648C177.128 162.317 176.659 162.152 176.104 162.152ZM182.481 160.392H184.961V163.752H188.705V160.392H191.201V169H188.705V165.784H184.961V169H182.481V160.392ZM200.823 162.44H197.911V169H195.431V162.44H192.519V160.392H200.823V162.44ZM205.826 169.128C204.919 169.128 204.103 168.941 203.378 168.568C202.663 168.184 202.103 167.656 201.698 166.984C201.292 166.312 201.09 165.549 201.09 164.696C201.09 163.843 201.292 163.08 201.698 162.408C202.103 161.736 202.663 161.213 203.378 160.84C204.103 160.456 204.919 160.264 205.826 160.264C206.732 160.264 207.543 160.456 208.258 160.84C208.972 161.213 209.532 161.736 209.938 162.408C210.343 163.08 210.546 163.843 210.546 164.696C210.546 165.549 210.343 166.312 209.938 166.984C209.532 167.656 208.972 168.184 208.258 168.568C207.543 168.941 206.732 169.128 205.826 169.128ZM205.826 167.08C206.466 167.08 206.988 166.867 207.394 166.44C207.81 166.003 208.018 165.421 208.018 164.696C208.018 163.971 207.81 163.395 207.394 162.968C206.988 162.531 206.466 162.312 205.826 162.312C205.186 162.312 204.658 162.531 204.242 162.968C203.826 163.395 203.618 163.971 203.618 164.696C203.618 165.421 203.826 166.003 204.242 166.44C204.658 166.867 205.186 167.08 205.826 167.08ZM218.839 164.504C219.852 164.845 220.359 165.528 220.359 166.552C220.359 167.331 220.065 167.933 219.479 168.36C218.892 168.787 218.017 169 216.855 169H212.263V160.392H216.663C217.74 160.392 218.583 160.589 219.191 160.984C219.799 161.368 220.102 161.912 220.102 162.616C220.102 163.043 219.991 163.421 219.767 163.752C219.553 164.072 219.244 164.323 218.839 164.504ZM214.551 163.928H216.439C217.313 163.928 217.751 163.619 217.751 163C217.751 162.392 217.313 162.088 216.439 162.088H214.551V163.928ZM216.647 167.304C217.564 167.304 218.023 166.989 218.023 166.36C218.023 166.029 217.916 165.789 217.703 165.64C217.489 165.48 217.153 165.4 216.695 165.4H214.551V167.304H216.647ZM226.801 160.52H228.337V164.12H233.169V160.52H234.705V169H233.169V165.448H228.337V169H226.801V160.52ZM240.715 160.44C241.888 160.44 242.784 160.728 243.403 161.304C244.032 161.88 244.347 162.739 244.347 163.88V169H242.891V167.88C242.635 168.275 242.267 168.579 241.787 168.792C241.318 168.995 240.758 169.096 240.107 169.096C239.158 169.096 238.395 168.867 237.819 168.408C237.254 167.949 236.971 167.347 236.971 166.6C236.971 165.853 237.243 165.256 237.787 164.808C238.331 164.349 239.195 164.12 240.379 164.12H242.811V163.816C242.811 163.155 242.619 162.648 242.235 162.296C241.851 161.944 241.286 161.768 240.539 161.768C240.038 161.768 239.547 161.853 239.067 162.024C238.587 162.184 238.182 162.403 237.851 162.68L237.211 161.528C237.648 161.176 238.171 160.909 238.779 160.728C239.387 160.536 240.032 160.44 240.715 160.44ZM240.363 167.912C240.95 167.912 241.456 167.784 241.883 167.528C242.31 167.261 242.619 166.888 242.811 166.408V165.224H240.443C239.142 165.224 238.491 165.661 238.491 166.536C238.491 166.963 238.656 167.299 238.987 167.544C239.318 167.789 239.776 167.912 240.363 167.912ZM44.5502 183.864H41.4462V191H39.9102V183.864H36.8062V182.52H44.5502V183.864ZM53.4098 186.808C53.4098 186.925 53.3991 187.08 53.3778 187.272H46.4978C46.5938 188.019 46.9191 188.621 47.4738 189.08C48.0391 189.528 48.7378 189.752 49.5698 189.752C50.5831 189.752 51.3991 189.411 52.0178 188.728L52.8658 189.72C52.4818 190.168 52.0018 190.509 51.4258 190.744C50.8605 190.979 50.2258 191.096 49.5218 191.096C48.6258 191.096 47.8311 190.915 47.1378 190.552C46.4445 190.179 45.9058 189.661 45.5218 189C45.1485 188.339 44.9618 187.592 44.9618 186.76C44.9618 185.939 45.1431 185.197 45.5058 184.536C45.8791 183.875 46.3858 183.363 47.0258 183C47.6765 182.627 48.4071 182.44 49.2178 182.44C50.0285 182.44 50.7485 182.627 51.3778 183C52.0178 183.363 52.5138 183.875 52.8658 184.536C53.2285 185.197 53.4098 185.955 53.4098 186.808ZM49.2178 183.736C48.4818 183.736 47.8631 183.96 47.3618 184.408C46.8711 184.856 46.5831 185.443 46.4978 186.168H51.9378C51.8525 185.453 51.5591 184.872 51.0578 184.424C50.5671 183.965 49.9538 183.736 49.2178 183.736ZM60.2887 182.44C61.11 182.44 61.846 182.621 62.4967 182.984C63.1474 183.347 63.654 183.853 64.0167 184.504C64.39 185.155 64.5767 185.907 64.5767 186.76C64.5767 187.613 64.39 188.371 64.0167 189.032C63.654 189.683 63.1474 190.189 62.4967 190.552C61.846 190.915 61.11 191.096 60.2887 191.096C59.6807 191.096 59.1207 190.979 58.6087 190.744C58.1074 190.509 57.6807 190.168 57.3287 189.72V194.104H55.7927V182.52H57.2647V183.864C57.606 183.395 58.038 183.043 58.5607 182.808C59.0834 182.563 59.6594 182.44 60.2887 182.44ZM60.1607 189.752C60.7047 189.752 61.19 189.629 61.6167 189.384C62.054 189.128 62.3954 188.776 62.6407 188.328C62.8967 187.869 63.0247 187.347 63.0247 186.76C63.0247 186.173 62.8967 185.656 62.6407 185.208C62.3954 184.749 62.054 184.397 61.6167 184.152C61.19 183.907 60.7047 183.784 60.1607 183.784C59.6274 183.784 59.142 183.912 58.7047 184.168C58.278 184.413 57.9367 184.76 57.6807 185.208C57.4354 185.656 57.3127 186.173 57.3127 186.76C57.3127 187.347 57.4354 187.869 57.6807 188.328C57.926 188.776 58.2674 189.128 58.7047 189.384C59.142 189.629 59.6274 189.752 60.1607 189.752ZM71.3043 182.44C72.1256 182.44 72.8616 182.621 73.5123 182.984C74.163 183.347 74.6696 183.853 75.0323 184.504C75.4056 185.155 75.5923 185.907 75.5923 186.76C75.5923 187.613 75.4056 188.371 75.0323 189.032C74.6696 189.683 74.163 190.189 73.5123 190.552C72.8616 190.915 72.1256 191.096 71.3043 191.096C70.6963 191.096 70.1363 190.979 69.6243 190.744C69.123 190.509 68.6963 190.168 68.3443 189.72V194.104H66.8083V182.52H68.2803V183.864C68.6216 183.395 69.0536 183.043 69.5763 182.808C70.099 182.563 70.675 182.44 71.3043 182.44ZM71.1763 189.752C71.7203 189.752 72.2056 189.629 72.6323 189.384C73.0696 189.128 73.411 188.776 73.6563 188.328C73.9123 187.869 74.0403 187.347 74.0403 186.76C74.0403 186.173 73.9123 185.656 73.6563 185.208C73.411 184.749 73.0696 184.397 72.6323 184.152C72.2056 183.907 71.7203 183.784 71.1763 183.784C70.643 183.784 70.1576 183.912 69.7203 184.168C69.2936 184.413 68.9523 184.76 68.6963 185.208C68.451 185.656 68.3283 186.173 68.3283 186.76C68.3283 187.347 68.451 187.869 68.6963 188.328C68.9416 188.776 69.283 189.128 69.7203 189.384C70.1576 189.629 70.643 189.752 71.1763 189.752ZM77.8239 182.52H79.3599V188.696L84.5599 182.52H85.9519V191H84.4159V184.824L79.2319 191H77.8239V182.52ZM95.2533 183.864H92.1493V191H90.6133V183.864H87.5093V182.52H95.2533V183.864ZM100.081 191.096C99.2383 191.096 98.4809 190.909 97.8089 190.536C97.1369 190.163 96.6089 189.651 96.2249 189C95.8516 188.339 95.6649 187.592 95.6649 186.76C95.6649 185.928 95.8516 185.187 96.2249 184.536C96.6089 183.875 97.1369 183.363 97.8089 183C98.4809 182.627 99.2383 182.44 100.081 182.44C100.924 182.44 101.676 182.627 102.337 183C103.009 183.363 103.532 183.875 103.905 184.536C104.289 185.187 104.481 185.928 104.481 186.76C104.481 187.592 104.289 188.339 103.905 189C103.532 189.651 103.009 190.163 102.337 190.536C101.676 190.909 100.924 191.096 100.081 191.096ZM100.081 189.752C100.625 189.752 101.11 189.629 101.537 189.384C101.974 189.128 102.316 188.776 102.561 188.328C102.806 187.869 102.929 187.347 102.929 186.76C102.929 186.173 102.806 185.656 102.561 185.208C102.316 184.749 101.974 184.397 101.537 184.152C101.11 183.907 100.625 183.784 100.081 183.784C99.5369 183.784 99.0463 183.907 98.6089 184.152C98.1823 184.397 97.8409 184.749 97.5849 185.208C97.3396 185.656 97.2169 186.173 97.2169 186.76C97.2169 187.347 97.3396 187.869 97.5849 188.328C97.8409 188.776 98.1823 189.128 98.6089 189.384C99.0463 189.629 99.5369 189.752 100.081 189.752ZM111.195 182.44C112.016 182.44 112.752 182.621 113.403 182.984C114.054 183.347 114.56 183.853 114.923 184.504C115.296 185.155 115.483 185.907 115.483 186.76C115.483 187.613 115.296 188.371 114.923 189.032C114.56 189.683 114.054 190.189 113.403 190.552C112.752 190.915 112.016 191.096 111.195 191.096C110.587 191.096 110.027 190.979 109.515 190.744C109.014 190.509 108.587 190.168 108.235 189.72V194.104H106.699V182.52H108.171V183.864C108.512 183.395 108.944 183.043 109.467 182.808C109.99 182.563 110.566 182.44 111.195 182.44ZM111.067 189.752C111.611 189.752 112.096 189.629 112.523 189.384C112.96 189.128 113.302 188.776 113.547 188.328C113.803 187.869 113.931 187.347 113.931 186.76C113.931 186.173 113.803 185.656 113.547 185.208C113.302 184.749 112.96 184.397 112.523 184.152C112.096 183.907 111.611 183.784 111.067 183.784C110.534 183.784 110.048 183.912 109.611 184.168C109.184 184.413 108.843 184.76 108.587 185.208C108.342 185.656 108.219 186.173 108.219 186.76C108.219 187.347 108.342 187.869 108.587 188.328C108.832 188.776 109.174 189.128 109.611 189.384C110.048 189.629 110.534 189.752 111.067 189.752ZM117.715 182.52H119.251V188.696L124.451 182.52H125.843V191H124.307V184.824L119.123 191H117.715V182.52ZM128.824 182.52H130.36V188.696L135.56 182.52H136.952V191H135.416V184.824L130.232 191H128.824V182.52ZM154.87 191L154.854 182.84L150.806 189.64H150.07L146.022 182.888V191H144.486V179.8H145.798L150.47 187.672L155.078 179.8H156.39L156.406 191H154.87ZM163.268 191.096C162.426 191.096 161.668 190.909 160.996 190.536C160.324 190.163 159.796 189.651 159.412 189C159.039 188.339 158.852 187.592 158.852 186.76C158.852 185.928 159.039 185.187 159.412 184.536C159.796 183.875 160.324 183.363 160.996 183C161.668 182.627 162.426 182.44 163.268 182.44C164.111 182.44 164.863 182.627 165.524 183C166.196 183.363 166.719 183.875 167.092 184.536C167.476 185.187 167.668 185.928 167.668 186.76C167.668 187.592 167.476 188.339 167.092 189C166.719 189.651 166.196 190.163 165.524 190.536C164.863 190.909 164.111 191.096 163.268 191.096ZM163.268 189.752C163.812 189.752 164.298 189.629 164.724 189.384C165.162 189.128 165.503 188.776 165.748 188.328C165.994 187.869 166.116 187.347 166.116 186.76C166.116 186.173 165.994 185.656 165.748 185.208C165.503 184.749 165.162 184.397 164.724 184.152C164.298 183.907 163.812 183.784 163.268 183.784C162.724 183.784 162.234 183.907 161.796 184.152C161.37 184.397 161.028 184.749 160.772 185.208C160.527 185.656 160.404 186.173 160.404 186.76C160.404 187.347 160.527 187.869 160.772 188.328C161.028 188.776 161.37 189.128 161.796 189.384C162.234 189.629 162.724 189.752 163.268 189.752ZM173.582 191.096C172.718 191.096 171.945 190.909 171.262 190.536C170.59 190.163 170.062 189.651 169.678 189C169.294 188.339 169.102 187.592 169.102 186.76C169.102 185.928 169.294 185.187 169.678 184.536C170.062 183.875 170.59 183.363 171.262 183C171.945 182.627 172.718 182.44 173.582 182.44C174.35 182.44 175.033 182.595 175.63 182.904C176.238 183.213 176.708 183.661 177.038 184.248L175.87 185C175.604 184.595 175.273 184.291 174.878 184.088C174.484 183.885 174.046 183.784 173.566 183.784C173.012 183.784 172.51 183.907 172.062 184.152C171.625 184.397 171.278 184.749 171.022 185.208C170.777 185.656 170.654 186.173 170.654 186.76C170.654 187.357 170.777 187.885 171.022 188.344C171.278 188.792 171.625 189.139 172.062 189.384C172.51 189.629 173.012 189.752 173.566 189.752C174.046 189.752 174.484 189.651 174.878 189.448C175.273 189.245 175.604 188.941 175.87 188.536L177.038 189.272C176.708 189.859 176.238 190.312 175.63 190.632C175.033 190.941 174.35 191.096 173.582 191.096ZM182.323 187.416H180.563V191H179.027V182.52H180.563V186.104H182.355L185.107 182.52H186.755L183.539 186.6L186.979 191H185.171L182.323 187.416ZM191.94 191.096C191.098 191.096 190.34 190.909 189.668 190.536C188.996 190.163 188.468 189.651 188.084 189C187.711 188.339 187.524 187.592 187.524 186.76C187.524 185.928 187.711 185.187 188.084 184.536C188.468 183.875 188.996 183.363 189.668 183C190.34 182.627 191.098 182.44 191.94 182.44C192.783 182.44 193.535 182.627 194.196 183C194.868 183.363 195.391 183.875 195.764 184.536C196.148 185.187 196.34 185.928 196.34 186.76C196.34 187.592 196.148 188.339 195.764 189C195.391 189.651 194.868 190.163 194.196 190.536C193.535 190.909 192.783 191.096 191.94 191.096ZM191.94 189.752C192.484 189.752 192.97 189.629 193.396 189.384C193.834 189.128 194.175 188.776 194.42 188.328C194.666 187.869 194.788 187.347 194.788 186.76C194.788 186.173 194.666 185.656 194.42 185.208C194.175 184.749 193.834 184.397 193.396 184.152C192.97 183.907 192.484 183.784 191.94 183.784C191.396 183.784 190.906 183.907 190.468 184.152C190.042 184.397 189.7 184.749 189.444 185.208C189.199 185.656 189.076 186.173 189.076 186.76C189.076 187.347 189.199 187.869 189.444 188.328C189.7 188.776 190.042 189.128 190.468 189.384C190.906 189.629 191.396 189.752 191.94 189.752ZM204.334 186.6C205.433 186.877 205.982 187.565 205.982 188.664C205.982 189.411 205.7 189.987 205.134 190.392C204.58 190.797 203.748 191 202.638 191H198.558V182.52H202.494C203.497 182.52 204.281 182.712 204.846 183.096C205.412 183.469 205.694 184.003 205.694 184.696C205.694 185.144 205.572 185.533 205.326 185.864C205.092 186.184 204.761 186.429 204.334 186.6ZM200.062 186.168H202.366C202.953 186.168 203.396 186.061 203.694 185.848C204.004 185.635 204.158 185.325 204.158 184.92C204.158 184.109 203.561 183.704 202.366 183.704H200.062V186.168ZM202.526 189.816C203.166 189.816 203.646 189.715 203.966 189.512C204.286 189.309 204.446 188.995 204.446 188.568C204.446 188.131 204.297 187.805 203.998 187.592C203.71 187.379 203.252 187.272 202.622 187.272H200.062V189.816H202.526ZM212.082 191.096C211.218 191.096 210.445 190.909 209.762 190.536C209.09 190.163 208.562 189.651 208.178 189C207.794 188.339 207.602 187.592 207.602 186.76C207.602 185.928 207.794 185.187 208.178 184.536C208.562 183.875 209.09 183.363 209.762 183C210.445 182.627 211.218 182.44 212.082 182.44C212.85 182.44 213.533 182.595 214.13 182.904C214.738 183.213 215.208 183.661 215.538 184.248L214.37 185C214.104 184.595 213.773 184.291 213.378 184.088C212.984 183.885 212.546 183.784 212.066 183.784C211.512 183.784 211.01 183.907 210.562 184.152C210.125 184.397 209.778 184.749 209.522 185.208C209.277 185.656 209.154 186.173 209.154 186.76C209.154 187.357 209.277 187.885 209.522 188.344C209.778 188.792 210.125 189.139 210.562 189.384C211.01 189.629 211.512 189.752 212.066 189.752C212.546 189.752 212.984 189.651 213.378 189.448C213.773 189.245 214.104 188.941 214.37 188.536L215.538 189.272C215.208 189.859 214.738 190.312 214.13 190.632C213.533 190.941 212.85 191.096 212.082 191.096ZM220.823 187.416H219.063V191H217.527V182.52H219.063V186.104H220.855L223.607 182.52H225.255L222.039 186.6L225.479 191H223.671L220.823 187.416ZM230.44 191.096C229.598 191.096 228.84 190.909 228.168 190.536C227.496 190.163 226.968 189.651 226.584 189C226.211 188.339 226.024 187.592 226.024 186.76C226.024 185.928 226.211 185.187 226.584 184.536C226.968 183.875 227.496 183.363 228.168 183C228.84 182.627 229.598 182.44 230.44 182.44C231.283 182.44 232.035 182.627 232.696 183C233.368 183.363 233.891 183.875 234.264 184.536C234.648 185.187 234.84 185.928 234.84 186.76C234.84 187.592 234.648 188.339 234.264 189C233.891 189.651 233.368 190.163 232.696 190.536C232.035 190.909 231.283 191.096 230.44 191.096ZM230.44 189.752C230.984 189.752 231.47 189.629 231.896 189.384C232.334 189.128 232.675 188.776 232.92 188.328C233.166 187.869 233.288 187.347 233.288 186.76C233.288 186.173 233.166 185.656 232.92 185.208C232.675 184.749 232.334 184.397 231.896 184.152C231.47 183.907 230.984 183.784 230.44 183.784C229.896 183.784 229.406 183.907 228.968 184.152C228.542 184.397 228.2 184.749 227.944 185.208C227.699 185.656 227.576 186.173 227.576 186.76C227.576 187.347 227.699 187.869 227.944 188.328C228.2 188.776 228.542 189.128 228.968 189.384C229.406 189.629 229.896 189.752 230.44 189.752ZM243.298 183.864H238.594V191H237.058V182.52H243.298V183.864ZM248.128 191.096C247.285 191.096 246.528 190.909 245.856 190.536C245.184 190.163 244.656 189.651 244.272 189C243.898 188.339 243.712 187.592 243.712 186.76C243.712 185.928 243.898 185.187 244.272 184.536C244.656 183.875 245.184 183.363 245.856 183C246.528 182.627 247.285 182.44 248.128 182.44C248.97 182.44 249.722 182.627 250.384 183C251.056 183.363 251.578 183.875 251.952 184.536C252.336 185.187 252.528 185.928 252.528 186.76C252.528 187.592 252.336 188.339 251.952 189C251.578 189.651 251.056 190.163 250.384 190.536C249.722 190.909 248.97 191.096 248.128 191.096ZM248.128 189.752C248.672 189.752 249.157 189.629 249.584 189.384C250.021 189.128 250.362 188.776 250.608 188.328C250.853 187.869 250.976 187.347 250.976 186.76C250.976 186.173 250.853 185.656 250.608 185.208C250.362 184.749 250.021 184.397 249.584 184.152C249.157 183.907 248.672 183.784 248.128 183.784C247.584 183.784 247.093 183.907 246.656 184.152C246.229 184.397 245.888 184.749 245.632 185.208C245.386 185.656 245.264 186.173 245.264 186.76C245.264 187.347 245.386 187.869 245.632 188.328C245.888 188.776 246.229 189.128 246.656 189.384C247.093 189.629 247.584 189.752 248.128 189.752ZM115.711 204.44C116.532 204.44 117.268 204.621 117.919 204.984C118.569 205.347 119.076 205.853 119.439 206.504C119.812 207.155 119.999 207.907 119.999 208.76C119.999 209.613 119.812 210.371 119.439 211.032C119.076 211.683 118.569 212.189 117.919 212.552C117.268 212.915 116.532 213.096 115.711 213.096C115.103 213.096 114.543 212.979 114.031 212.744C113.529 212.509 113.103 212.168 112.751 211.72V216.104H111.215V204.52H112.687V205.864C113.028 205.395 113.46 205.043 113.983 204.808C114.505 204.563 115.081 204.44 115.711 204.44ZM115.583 211.752C116.127 211.752 116.612 211.629 117.039 211.384C117.476 211.128 117.817 210.776 118.063 210.328C118.319 209.869 118.447 209.347 118.447 208.76C118.447 208.173 118.319 207.656 118.063 207.208C117.817 206.749 117.476 206.397 117.039 206.152C116.612 205.907 116.127 205.784 115.583 205.784C115.049 205.784 114.564 205.912 114.127 206.168C113.7 206.413 113.359 206.76 113.103 207.208C112.857 207.656 112.735 208.173 112.735 208.76C112.735 209.347 112.857 209.869 113.103 210.328C113.348 210.776 113.689 211.128 114.127 211.384C114.564 211.629 115.049 211.752 115.583 211.752ZM129.894 208.808C129.894 208.925 129.884 209.08 129.862 209.272H122.982C123.078 210.019 123.404 210.621 123.958 211.08C124.524 211.528 125.222 211.752 126.054 211.752C127.068 211.752 127.884 211.411 128.502 210.728L129.35 211.72C128.966 212.168 128.486 212.509 127.91 212.744C127.345 212.979 126.71 213.096 126.006 213.096C125.11 213.096 124.316 212.915 123.622 212.552C122.929 212.179 122.39 211.661 122.006 211C121.633 210.339 121.446 209.592 121.446 208.76C121.446 207.939 121.628 207.197 121.99 206.536C122.364 205.875 122.87 205.363 123.51 205C124.161 204.627 124.892 204.44 125.702 204.44C126.513 204.44 127.233 204.627 127.862 205C128.502 205.363 128.998 205.875 129.35 206.536C129.713 207.197 129.894 207.955 129.894 208.808ZM125.702 205.736C124.966 205.736 124.348 205.96 123.846 206.408C123.356 206.856 123.068 207.443 122.982 208.168H128.422C128.337 207.453 128.044 206.872 127.542 206.424C127.052 205.965 126.438 205.736 125.702 205.736ZM138.517 205.864H133.813V213H132.277V204.52H138.517V205.864ZM140.09 204.52H141.626V210.696L146.826 204.52H148.218V213H146.682V206.824L141.498 213H140.09V204.52ZM154.831 213.096C153.988 213.096 153.231 212.909 152.559 212.536C151.887 212.163 151.359 211.651 150.975 211C150.602 210.339 150.415 209.592 150.415 208.76C150.415 207.928 150.602 207.187 150.975 206.536C151.359 205.875 151.887 205.363 152.559 205C153.231 204.627 153.988 204.44 154.831 204.44C155.674 204.44 156.426 204.627 157.087 205C157.759 205.363 158.282 205.875 158.655 206.536C159.039 207.187 159.231 207.928 159.231 208.76C159.231 209.592 159.039 210.339 158.655 211C158.282 211.651 157.759 212.163 157.087 212.536C156.426 212.909 155.674 213.096 154.831 213.096ZM154.831 211.752C155.375 211.752 155.86 211.629 156.287 211.384C156.724 211.128 157.066 210.776 157.311 210.328C157.556 209.869 157.679 209.347 157.679 208.76C157.679 208.173 157.556 207.656 157.311 207.208C157.066 206.749 156.724 206.397 156.287 206.152C155.86 205.907 155.375 205.784 154.831 205.784C154.287 205.784 153.796 205.907 153.359 206.152C152.932 206.397 152.591 206.749 152.335 207.208C152.09 207.656 151.967 208.173 151.967 208.76C151.967 209.347 152.09 209.869 152.335 210.328C152.591 210.776 152.932 211.128 153.359 211.384C153.796 211.629 154.287 211.752 154.831 211.752ZM161.449 204.52H162.985V208.12H167.817V204.52H169.353V213H167.817V209.448H162.985V213H161.449V204.52ZM175.364 204.44C176.537 204.44 177.433 204.728 178.052 205.304C178.681 205.88 178.996 206.739 178.996 207.88V213H177.54V211.88C177.284 212.275 176.916 212.579 176.436 212.792C175.966 212.995 175.406 213.096 174.756 213.096C173.806 213.096 173.044 212.867 172.468 212.408C171.902 211.949 171.62 211.347 171.62 210.6C171.62 209.853 171.892 209.256 172.436 208.808C172.98 208.349 173.844 208.12 175.028 208.12H177.46V207.816C177.46 207.155 177.268 206.648 176.884 206.296C176.5 205.944 175.934 205.768 175.188 205.768C174.686 205.768 174.196 205.853 173.716 206.024C173.236 206.184 172.83 206.403 172.5 206.68L171.86 205.528C172.297 205.176 172.82 204.909 173.428 204.728C174.036 204.536 174.681 204.44 175.364 204.44ZM175.012 211.912C175.598 211.912 176.105 211.784 176.532 211.528C176.958 211.261 177.268 210.888 177.46 210.408V209.224H175.092C173.79 209.224 173.14 209.661 173.14 210.536C173.14 210.963 173.305 211.299 173.636 211.544C173.966 211.789 174.425 211.912 175.012 211.912Z" fill="#545365"/>
</svg>
