<svg width="160" height="160" viewBox="0 0 160 160" fill="none" xmlns="http://www.w3.org/2000/svg">
<path d="M134.509 81.6663V59.1732H126.509V81.6663H134.509ZM134.509 59.1732C134.509 53.6026 129.868 49.333 124.453 49.333V57.333C125.727 57.333 126.509 58.2925 126.509 59.1732H134.509ZM124.453 49.333H28.8985V57.333H124.453V49.333ZM28.8985 49.333C23.4824 49.333 18.8425 53.6035 18.8425 59.1732H26.8425C26.8425 58.2925 27.625 57.333 28.8985 57.333V49.333ZM18.8425 59.1732V138.159H26.8425V59.1732H18.8425ZM18.8425 138.159C18.8425 143.73 23.4826 148 28.8985 148V140C27.6248 140 26.8425 139.04 26.8425 138.159H18.8425ZM28.8985 148H124.453V140H28.8985V148ZM124.453 148C129.869 148 134.509 143.729 134.509 138.159H126.509C126.509 139.04 125.727 140 124.453 140V148ZM134.509 138.159V115.666H126.509V138.159H134.509ZM134.509 115.666V81.6663H126.509V115.666H134.509Z" fill="white"/>
<path d="M96 40C104.837 40 112 32.8366 112 24C112 15.1634 104.837 8 96 8C87.1634 8 80 15.1634 80 24C80 32.8366 87.1634 40 96 40Z" stroke="white" stroke-width="8"/>
<path d="M40.1293 48C40.0471 47.4164 40 46.8232 40 46.2198C40 38.3663 47.1633 32 56 32C64.8367 32 72 38.3665 72 46.2198C72 46.8232 71.9526 47.4166 71.8707 48" stroke="white" stroke-width="8"/>
<path d="M132 88H88.8349C86.1645 88 84 89.6827 84 91.7588V104.241C84 106.317 86.1645 108 88.8349 108H132" stroke="white" stroke-width="8"/>
</svg>
