<svg width="400" height="368" viewBox="0 0 400 368" fill="none" xmlns="http://www.w3.org/2000/svg">
<path fill-rule="evenodd" clip-rule="evenodd" d="M0 105.899V0.211426C25.8924 0.84952 51.9008 2.84942 77.9635 4.85349C101.624 6.67282 125.328 8.49559 149.032 9.3061C150.482 9.36245 151.972 9.41482 153.495 9.46834C182.721 10.4957 223.87 11.9422 223.704 49.9692V52.2455C222.085 79.6257 192.349 97.1378 169.724 110.462C167.469 111.79 165.284 113.076 163.206 114.327C147.151 123.895 130.735 132.823 114.312 141.754C93.2034 153.234 72.0833 164.72 51.703 177.58C34.0772 188.783 16.8346 200.534 0 212.816V152.759C24.6442 133.305 50.2956 115.171 77.1525 98.9099C77.5443 98.6716 77.9846 98.4124 78.4574 98.1339C81.8181 96.1548 86.8293 93.2037 87.8698 89.9081C89.8597 83.7345 82.5984 84.0449 78.0252 85.0451C51.347 90.9644 25.4315 97.5794 0 105.899ZM400 270.09C389.861 269.315 379.713 268.646 369.558 268.081C349.031 266.839 328.516 266.069 308.012 265.77C285.46 265.471 262.897 265.678 240.322 266.391C160.077 268.968 78.6135 276.781 0 293.988V368H400V270.09Z" fill="#0C49D2"/>
</svg>
