<svg width="182" height="192" viewBox="0 0 182 192" fill="none" xmlns="http://www.w3.org/2000/svg">
<path fill-rule="evenodd" clip-rule="evenodd" d="M7.66936 135.923C11.0008 143.199 15.2148 149.986 20.1742 156.148C49.1619 128.136 80.9895 103.095 115.171 81.4245C127.646 73.5721 140.573 66.5591 153.493 59.5498C161.442 55.2375 169.388 50.9266 177.224 46.4226C160.413 18.6003 129.878 0 95 0C48.3945 0 9.54584 33.2107 0.828674 77.2575C25.5162 63.6596 45.8082 52.5249 50.0856 50.574C76.3464 38.6549 103.12 31.1582 131.282 24.9249C134.082 24.3142 138.526 24.1247 137.308 27.8941C136.671 29.9063 133.604 31.7082 131.547 32.9166C131.258 33.0866 130.988 33.2449 130.748 33.3904C88.1413 59.1237 50.4916 92.5433 15.6838 127.753C12.9929 130.455 10.3215 133.179 7.66936 135.923ZM181.154 138.399C144.843 141.341 108.579 146.475 73.3549 154.813C60.6483 157.831 48.0699 161.341 35.6198 165.342C33.8802 165.89 32.1424 166.449 30.4071 167.02C47.4606 182.54 70.1255 192 95 192C132.8 192 165.497 170.154 181.154 138.399Z" fill="#C4E5F0"/>
</svg>
