<svg width="290" height="250" viewBox="0 0 290 250" fill="none" xmlns="http://www.w3.org/2000/svg">
<rect width="290" height="250" fill="#FFF5E4"/>
<circle cx="147" cy="80" r="16" stroke="#F6A219" stroke-width="2"/>
<circle cx="147" cy="75" r="5" stroke="#F6A219" stroke-width="2"/>
<path d="M140 89V86C140 84.4151 141.309 83 142.907 83H151.093C152.692 83 154 84.4156 154 86V89" stroke="#F6A219" stroke-width="2"/>
<path d="M147 34V58M147 34L139 42M147 34L155 42M147 126V102M147 126L139 118M147 126L155 118" stroke="#F6A219" stroke-width="2"/>
<path d="M179.527 47.4733L162.556 64.4438M179.527 47.4733H168.213M179.527 47.4733V58.787M114.473 112.527L131.444 95.5565M114.473 112.527V101.213M114.473 112.527H125.787" stroke="#F6A219" stroke-width="2"/>
<path d="M193 80L169 80M193 80L185 72M193 80L185 88M101 80L125 80M101 80L109 72M101 80L109 88" stroke="#F6A219" stroke-width="2"/>
<path d="M179.527 112.527L162.556 95.5564M179.527 112.527L179.527 101.213M179.527 112.527L168.213 112.527M114.473 47.4731L131.444 64.4437M114.473 47.4731L125.787 47.4731M114.473 47.4731L114.473 58.7869" stroke="#F6A219" stroke-width="2"/>
<path d="M48.4311 157.8V169H46.8631V159.192H40.3671V169H38.7831V157.8H48.4311ZM56.1637 160.44C56.985 160.44 57.721 160.621 58.3717 160.984C59.0224 161.347 59.529 161.853 59.8917 162.504C60.265 163.155 60.4517 163.907 60.4517 164.76C60.4517 165.613 60.265 166.371 59.8917 167.032C59.529 167.683 59.0224 168.189 58.3717 168.552C57.721 168.915 56.985 169.096 56.1637 169.096C55.5557 169.096 54.9957 168.979 54.4837 168.744C53.9824 168.509 53.5557 168.168 53.2037 167.72V172.104H51.6677V160.52H53.1397V161.864C53.481 161.395 53.913 161.043 54.4357 160.808C54.9584 160.563 55.5344 160.44 56.1637 160.44ZM56.0357 167.752C56.5797 167.752 57.065 167.629 57.4917 167.384C57.929 167.128 58.2704 166.776 58.5157 166.328C58.7717 165.869 58.8997 165.347 58.8997 164.76C58.8997 164.173 58.7717 163.656 58.5157 163.208C58.2704 162.749 57.929 162.397 57.4917 162.152C57.065 161.907 56.5797 161.784 56.0357 161.784C55.5024 161.784 55.017 161.912 54.5797 162.168C54.153 162.413 53.8117 162.76 53.5557 163.208C53.3104 163.656 53.1877 164.173 53.1877 164.76C53.1877 165.347 53.3104 165.869 53.5557 166.328C53.801 166.776 54.1424 167.128 54.5797 167.384C55.017 167.629 55.5024 167.752 56.0357 167.752ZM62.6833 160.52H64.2193V166.696L69.4193 160.52H70.8113V169H69.2753V162.824L64.0913 169H62.6833V160.52ZM73.7927 160.52H75.3287V164.12H80.1607V160.52H81.6967V169H80.1607V165.448H75.3287V169H73.7927V160.52ZM93.7393 167.656V171.032H92.2833V169H84.6833V160.52H86.2193V167.656H90.8593V160.52H92.3953V167.656H93.7393ZM95.7302 160.52H97.2662V166.696L102.466 160.52H103.858V169H102.322V162.824L97.1382 169H95.7302V160.52ZM114.696 160.52V169H113.16V161.864H108.376V169H106.84V160.52H114.696ZM121.213 164.76L123.517 161.688H124.925L122.669 164.76L124.925 167.816H123.517L121.213 164.76ZM124.285 164.76L126.589 161.688H127.997L125.741 164.76L127.997 167.816H126.589L124.285 164.76ZM133.659 169.096C132.816 169.096 132.059 168.909 131.387 168.536C130.715 168.163 130.187 167.651 129.803 167C129.43 166.339 129.243 165.592 129.243 164.76C129.243 163.928 129.43 163.187 129.803 162.536C130.187 161.875 130.715 161.363 131.387 161C132.059 160.627 132.816 160.44 133.659 160.44C134.502 160.44 135.254 160.627 135.915 161C136.587 161.363 137.11 161.875 137.483 162.536C137.867 163.187 138.059 163.928 138.059 164.76C138.059 165.592 137.867 166.339 137.483 167C137.11 167.651 136.587 168.163 135.915 168.536C135.254 168.909 134.502 169.096 133.659 169.096ZM133.659 167.752C134.203 167.752 134.688 167.629 135.115 167.384C135.552 167.128 135.894 166.776 136.139 166.328C136.384 165.869 136.507 165.347 136.507 164.76C136.507 164.173 136.384 163.656 136.139 163.208C135.894 162.749 135.552 162.397 135.115 162.152C134.688 161.907 134.203 161.784 133.659 161.784C133.115 161.784 132.624 161.907 132.187 162.152C131.76 162.397 131.419 162.749 131.163 163.208C130.918 163.656 130.795 164.173 130.795 164.76C130.795 165.347 130.918 165.869 131.163 166.328C131.419 166.776 131.76 167.128 132.187 167.384C132.624 167.629 133.115 167.752 133.659 167.752ZM148.839 167.656V170.968H147.399V169H140.311V170.968H138.855V167.656H139.303C139.847 167.624 140.22 167.24 140.423 166.504C140.625 165.768 140.764 164.728 140.839 163.384L140.967 160.52H147.543V167.656H148.839ZM142.247 163.496C142.204 164.563 142.113 165.448 141.975 166.152C141.847 166.845 141.607 167.347 141.255 167.656H146.007V161.864H142.327L142.247 163.496ZM150.84 160.52H152.376V164.12H157.208V160.52H158.744V169H157.208V165.448H152.376V169H150.84V160.52ZM165.362 169.096C164.52 169.096 163.762 168.909 163.09 168.536C162.418 168.163 161.89 167.651 161.506 167C161.133 166.339 160.946 165.592 160.946 164.76C160.946 163.928 161.133 163.187 161.506 162.536C161.89 161.875 162.418 161.363 163.09 161C163.762 160.627 164.52 160.44 165.362 160.44C166.205 160.44 166.957 160.627 167.618 161C168.29 161.363 168.813 161.875 169.186 162.536C169.57 163.187 169.762 163.928 169.762 164.76C169.762 165.592 169.57 166.339 169.186 167C168.813 167.651 168.29 168.163 167.618 168.536C166.957 168.909 166.205 169.096 165.362 169.096ZM165.362 167.752C165.906 167.752 166.392 167.629 166.818 167.384C167.256 167.128 167.597 166.776 167.842 166.328C168.088 165.869 168.21 165.347 168.21 164.76C168.21 164.173 168.088 163.656 167.842 163.208C167.597 162.749 167.256 162.397 166.818 162.152C166.392 161.907 165.906 161.784 165.362 161.784C164.818 161.784 164.328 161.907 163.89 162.152C163.464 162.397 163.122 162.749 162.866 163.208C162.621 163.656 162.498 164.173 162.498 164.76C162.498 165.347 162.621 165.869 162.866 166.328C163.122 166.776 163.464 167.128 163.89 167.384C164.328 167.629 164.818 167.752 165.362 167.752ZM178.22 161.864H173.516V169H171.98V160.52H178.22V161.864ZM183.05 169.096C182.207 169.096 181.45 168.909 180.778 168.536C180.106 168.163 179.578 167.651 179.194 167C178.82 166.339 178.634 165.592 178.634 164.76C178.634 163.928 178.82 163.187 179.194 162.536C179.578 161.875 180.106 161.363 180.778 161C181.45 160.627 182.207 160.44 183.05 160.44C183.892 160.44 184.644 160.627 185.306 161C185.978 161.363 186.5 161.875 186.874 162.536C187.258 163.187 187.45 163.928 187.45 164.76C187.45 165.592 187.258 166.339 186.874 167C186.5 167.651 185.978 168.163 185.306 168.536C184.644 168.909 183.892 169.096 183.05 169.096ZM183.05 167.752C183.594 167.752 184.079 167.629 184.506 167.384C184.943 167.128 185.284 166.776 185.53 166.328C185.775 165.869 185.898 165.347 185.898 164.76C185.898 164.173 185.775 163.656 185.53 163.208C185.284 162.749 184.943 162.397 184.506 162.152C184.079 161.907 183.594 161.784 183.05 161.784C182.506 161.784 182.015 161.907 181.578 162.152C181.151 162.397 180.81 162.749 180.554 163.208C180.308 163.656 180.186 164.173 180.186 164.76C180.186 165.347 180.308 165.869 180.554 166.328C180.81 166.776 181.151 167.128 181.578 167.384C182.015 167.629 182.506 167.752 183.05 167.752ZM197.597 169.096C196.754 169.096 195.997 168.909 195.325 168.536C194.653 168.163 194.125 167.651 193.741 167C193.367 166.339 193.181 165.592 193.181 164.76C193.181 163.928 193.367 163.187 193.741 162.536C194.125 161.875 194.653 161.363 195.325 161C195.997 160.627 196.754 160.44 197.597 160.44C198.439 160.44 199.191 160.627 199.853 161C200.525 161.363 201.047 161.875 201.421 162.536C201.805 163.187 201.997 163.928 201.997 164.76C201.997 165.592 201.805 166.339 201.421 167C201.047 167.651 200.525 168.163 199.853 168.536C199.191 168.909 198.439 169.096 197.597 169.096ZM197.597 167.752C198.141 167.752 198.626 167.629 199.053 167.384C199.49 167.128 199.831 166.776 200.077 166.328C200.322 165.869 200.445 165.347 200.445 164.76C200.445 164.173 200.322 163.656 200.077 163.208C199.831 162.749 199.49 162.397 199.053 162.152C198.626 161.907 198.141 161.784 197.597 161.784C197.053 161.784 196.562 161.907 196.125 162.152C195.698 162.397 195.357 162.749 195.101 163.208C194.855 163.656 194.733 164.173 194.733 164.76C194.733 165.347 194.855 165.869 195.101 166.328C195.357 166.776 195.698 167.128 196.125 167.384C196.562 167.629 197.053 167.752 197.597 167.752ZM207.511 165.416H205.751V169H204.215V160.52H205.751V164.104H207.543L210.295 160.52H211.943L208.727 164.6L212.167 169H210.359L207.511 165.416ZM213.777 160.52H215.313V164.12H220.145V160.52H221.681V169H220.145V165.448H215.313V169H213.777V160.52ZM227.692 160.44C228.865 160.44 229.761 160.728 230.38 161.304C231.009 161.88 231.324 162.739 231.324 163.88V169H229.868V167.88C229.612 168.275 229.244 168.579 228.764 168.792C228.294 168.995 227.734 169.096 227.084 169.096C226.134 169.096 225.372 168.867 224.796 168.408C224.23 167.949 223.948 167.347 223.948 166.6C223.948 165.853 224.22 165.256 224.764 164.808C225.308 164.349 226.172 164.12 227.356 164.12H229.788V163.816C229.788 163.155 229.596 162.648 229.212 162.296C228.828 161.944 228.262 161.768 227.516 161.768C227.014 161.768 226.524 161.853 226.044 162.024C225.564 162.184 225.158 162.403 224.828 162.68L224.188 161.528C224.625 161.176 225.148 160.909 225.756 160.728C226.364 160.536 227.009 160.44 227.692 160.44ZM227.34 167.912C227.926 167.912 228.433 167.784 228.86 167.528C229.286 167.261 229.596 166.888 229.788 166.408V165.224H227.42C226.118 165.224 225.468 165.661 225.468 166.536C225.468 166.963 225.633 167.299 225.964 167.544C226.294 167.789 226.753 167.912 227.34 167.912ZM233.146 167.816L235.402 164.76L233.146 161.688H234.554L236.858 164.76L234.554 167.816H233.146ZM236.218 167.816L238.474 164.76L236.218 161.688H237.626L239.93 164.76L237.626 167.816H236.218ZM244.961 164.072H252.961V165.144H244.961V164.072ZM47.8201 187.736H46.5241V191H44.0281V182.392H46.5241V185.736H47.8681L50.2041 182.392H52.8601L49.8521 186.52L53.0681 191H50.1241L47.8201 187.736ZM58.0601 191.128C57.1535 191.128 56.3375 190.941 55.6121 190.568C54.8975 190.184 54.3375 189.656 53.9321 188.984C53.5268 188.312 53.3241 187.549 53.3241 186.696C53.3241 185.843 53.5268 185.08 53.9321 184.408C54.3375 183.736 54.8975 183.213 55.6121 182.84C56.3375 182.456 57.1535 182.264 58.0601 182.264C58.9668 182.264 59.7775 182.456 60.4921 182.84C61.2068 183.213 61.7668 183.736 62.1721 184.408C62.5775 185.08 62.7801 185.843 62.7801 186.696C62.7801 187.549 62.5775 188.312 62.1721 188.984C61.7668 189.656 61.2068 190.184 60.4921 190.568C59.7775 190.941 58.9668 191.128 58.0601 191.128ZM58.0601 189.08C58.7001 189.08 59.2228 188.867 59.6281 188.44C60.0441 188.003 60.2521 187.421 60.2521 186.696C60.2521 185.971 60.0441 185.395 59.6281 184.968C59.2228 184.531 58.7001 184.312 58.0601 184.312C57.4201 184.312 56.8921 184.531 56.4761 184.968C56.0601 185.395 55.8521 185.971 55.8521 186.696C55.8521 187.421 56.0601 188.003 56.4761 188.44C56.8921 188.867 57.4201 189.08 58.0601 189.08ZM72.8969 191V185.848L70.3209 190.168H69.2649L66.7529 185.832V191H64.4969V182.392H67.1049L69.8569 187.368L72.7849 182.392H75.1209L75.1529 191H72.8969ZM86.1038 182.392V191H83.6078V184.44H80.0238V191H77.5438V182.392H86.1038ZM96.7529 182.392V191H94.2569V184.44H91.5369L91.4569 185.96C91.4142 187.091 91.3075 188.029 91.1369 188.776C90.9662 189.523 90.6889 190.109 90.3049 190.536C89.9209 190.963 89.3875 191.176 88.7049 191.176C88.3422 191.176 87.9102 191.112 87.4089 190.984L87.5369 188.936C87.7075 188.957 87.8302 188.968 87.9049 188.968C88.2782 188.968 88.5555 188.835 88.7369 188.568C88.9289 188.291 89.0569 187.944 89.1209 187.528C89.1849 187.101 89.2329 186.541 89.2649 185.848L89.3929 182.392H96.7529ZM107.521 186.728C107.521 186.76 107.505 186.984 107.473 187.4H100.961C101.078 187.933 101.356 188.355 101.793 188.664C102.23 188.973 102.774 189.128 103.425 189.128C103.873 189.128 104.268 189.064 104.609 188.936C104.961 188.797 105.286 188.584 105.585 188.296L106.913 189.736C106.102 190.664 104.918 191.128 103.361 191.128C102.39 191.128 101.532 190.941 100.785 190.568C100.038 190.184 99.4625 189.656 99.0571 188.984C98.6518 188.312 98.4491 187.549 98.4491 186.696C98.4491 185.853 98.6465 185.096 99.0411 184.424C99.4465 183.741 99.9958 183.213 100.689 182.84C101.393 182.456 102.177 182.264 103.041 182.264C103.884 182.264 104.646 182.445 105.329 182.808C106.012 183.171 106.545 183.693 106.929 184.376C107.324 185.048 107.521 185.832 107.521 186.728ZM103.057 184.152C102.492 184.152 102.017 184.312 101.633 184.632C101.249 184.952 101.014 185.389 100.929 185.944H105.169C105.084 185.4 104.849 184.968 104.465 184.648C104.081 184.317 103.612 184.152 103.057 184.152ZM113.226 187.736H111.93V191H109.434V182.392H111.93V185.736H113.274L115.61 182.392H118.266L115.258 186.52L118.474 191H115.53L113.226 187.736ZM123.53 191.128C122.613 191.128 121.786 190.941 121.05 190.568C120.325 190.184 119.754 189.656 119.338 188.984C118.933 188.312 118.73 187.549 118.73 186.696C118.73 185.843 118.933 185.08 119.338 184.408C119.754 183.736 120.325 183.213 121.05 182.84C121.786 182.456 122.613 182.264 123.53 182.264C124.437 182.264 125.226 182.456 125.898 182.84C126.581 183.213 127.077 183.752 127.386 184.456L125.45 185.496C125.002 184.707 124.357 184.312 123.514 184.312C122.864 184.312 122.325 184.525 121.898 184.952C121.472 185.379 121.258 185.96 121.258 186.696C121.258 187.432 121.472 188.013 121.898 188.44C122.325 188.867 122.864 189.08 123.514 189.08C124.368 189.08 125.013 188.685 125.45 187.896L127.386 188.952C127.077 189.635 126.581 190.168 125.898 190.552C125.226 190.936 124.437 191.128 123.53 191.128ZM128.903 182.392H131.383V185.752H135.127V182.392H137.623V191H135.127V187.784H131.383V191H128.903V182.392ZM143.357 182.264C144.69 182.264 145.714 182.584 146.429 183.224C147.143 183.853 147.501 184.808 147.501 186.088V191H145.165V189.928C144.695 190.728 143.821 191.128 142.541 191.128C141.879 191.128 141.303 191.016 140.812 190.792C140.333 190.568 139.965 190.259 139.709 189.864C139.453 189.469 139.325 189.021 139.325 188.52C139.325 187.72 139.623 187.091 140.221 186.632C140.829 186.173 141.762 185.944 143.021 185.944H145.005C145.005 185.4 144.839 184.984 144.509 184.696C144.178 184.397 143.682 184.248 143.021 184.248C142.562 184.248 142.109 184.323 141.661 184.472C141.223 184.611 140.85 184.803 140.541 185.048L139.645 183.304C140.114 182.973 140.674 182.717 141.325 182.536C141.986 182.355 142.663 182.264 143.357 182.264ZM143.165 189.448C143.591 189.448 143.97 189.352 144.301 189.16C144.631 188.957 144.866 188.664 145.005 188.28V187.4H143.293C142.269 187.4 141.757 187.736 141.757 188.408C141.757 188.728 141.879 188.984 142.125 189.176C142.381 189.357 142.727 189.448 143.165 189.448ZM157.317 182.392V191H155.093V188.536H153.253L151.621 191H148.965L150.933 188.184C150.335 187.949 149.877 187.613 149.557 187.176C149.247 186.728 149.093 186.189 149.093 185.56C149.093 184.547 149.455 183.768 150.181 183.224C150.917 182.669 151.925 182.392 153.205 182.392H157.317ZM153.253 184.424C152.719 184.424 152.314 184.52 152.037 184.712C151.77 184.904 151.637 185.213 151.637 185.64C151.637 186.067 151.765 186.381 152.021 186.584C152.287 186.776 152.687 186.872 153.221 186.872H155.093V184.424H153.253ZM169.319 182.264C170.119 182.264 170.844 182.451 171.495 182.824C172.156 183.187 172.674 183.704 173.047 184.376C173.42 185.037 173.607 185.811 173.607 186.696C173.607 187.581 173.42 188.36 173.047 189.032C172.674 189.693 172.156 190.211 171.495 190.584C170.844 190.947 170.119 191.128 169.319 191.128C168.22 191.128 167.356 190.781 166.727 190.088V194.104H164.231V182.392H166.615V183.384C167.234 182.637 168.135 182.264 169.319 182.264ZM168.887 189.08C169.527 189.08 170.05 188.867 170.455 188.44C170.871 188.003 171.079 187.421 171.079 186.696C171.079 185.971 170.871 185.395 170.455 184.968C170.05 184.531 169.527 184.312 168.887 184.312C168.247 184.312 167.719 184.531 167.303 184.968C166.898 185.395 166.695 185.971 166.695 186.696C166.695 187.421 166.898 188.003 167.303 188.44C167.719 188.867 168.247 189.08 168.887 189.08ZM178.56 182.264C179.893 182.264 180.917 182.584 181.632 183.224C182.346 183.853 182.704 184.808 182.704 186.088V191H180.368V189.928C179.898 190.728 179.024 191.128 177.744 191.128C177.082 191.128 176.506 191.016 176.016 190.792C175.536 190.568 175.168 190.259 174.912 189.864C174.656 189.469 174.528 189.021 174.528 188.52C174.528 187.72 174.826 187.091 175.424 186.632C176.032 186.173 176.965 185.944 178.224 185.944H180.208C180.208 185.4 180.042 184.984 179.712 184.696C179.381 184.397 178.885 184.248 178.224 184.248C177.765 184.248 177.312 184.323 176.864 184.472C176.426 184.611 176.053 184.803 175.744 185.048L174.848 183.304C175.317 182.973 175.877 182.717 176.528 182.536C177.189 182.355 177.866 182.264 178.56 182.264ZM178.368 189.448C178.794 189.448 179.173 189.352 179.504 189.16C179.834 188.957 180.069 188.664 180.208 188.28V187.4H178.496C177.472 187.4 176.96 187.736 176.96 188.408C176.96 188.728 177.082 188.984 177.328 189.176C177.584 189.357 177.93 189.448 178.368 189.448ZM189.848 182.984C190.669 182.984 191.389 183.155 192.008 183.496C192.627 183.827 193.101 184.296 193.432 184.904C193.773 185.512 193.944 186.216 193.944 187.016C193.944 187.837 193.741 188.568 193.336 189.208C192.941 189.837 192.387 190.328 191.672 190.68C190.957 191.021 190.147 191.192 189.24 191.192C187.736 191.192 186.552 190.712 185.688 189.752C184.835 188.781 184.408 187.363 184.408 185.496C184.408 183.768 184.781 182.392 185.528 181.368C186.285 180.333 187.443 179.656 189 179.336L193.096 178.52L193.432 180.664L189.816 181.384C188.835 181.576 188.104 181.896 187.624 182.344C187.155 182.792 186.877 183.427 186.792 184.248C187.165 183.843 187.613 183.533 188.136 183.32C188.659 183.096 189.229 182.984 189.848 182.984ZM189.256 189.256C189.896 189.256 190.408 189.048 190.792 188.632C191.187 188.216 191.384 187.688 191.384 187.048C191.384 186.397 191.187 185.88 190.792 185.496C190.408 185.112 189.896 184.92 189.256 184.92C188.605 184.92 188.083 185.112 187.688 185.496C187.293 185.88 187.096 186.397 187.096 187.048C187.096 187.699 187.299 188.232 187.704 188.648C188.109 189.053 188.627 189.256 189.256 189.256ZM199.67 191.128C198.763 191.128 197.947 190.941 197.222 190.568C196.507 190.184 195.947 189.656 195.542 188.984C195.136 188.312 194.934 187.549 194.934 186.696C194.934 185.843 195.136 185.08 195.542 184.408C195.947 183.736 196.507 183.213 197.222 182.84C197.947 182.456 198.763 182.264 199.67 182.264C200.576 182.264 201.387 182.456 202.102 182.84C202.816 183.213 203.376 183.736 203.782 184.408C204.187 185.08 204.39 185.843 204.39 186.696C204.39 187.549 204.187 188.312 203.782 188.984C203.376 189.656 202.816 190.184 202.102 190.568C201.387 190.941 200.576 191.128 199.67 191.128ZM199.67 189.08C200.31 189.08 200.832 188.867 201.238 188.44C201.654 188.003 201.862 187.421 201.862 186.696C201.862 185.971 201.654 185.395 201.238 184.968C200.832 184.531 200.31 184.312 199.67 184.312C199.03 184.312 198.502 184.531 198.086 184.968C197.67 185.395 197.462 185.971 197.462 186.696C197.462 187.421 197.67 188.003 198.086 188.44C198.502 188.867 199.03 189.08 199.67 189.08ZM213.026 184.44H210.114V191H207.634V184.44H204.722V182.392H213.026V184.44ZM217.7 182.264C219.034 182.264 220.058 182.584 220.772 183.224C221.487 183.853 221.844 184.808 221.844 186.088V191H219.508V189.928C219.039 190.728 218.164 191.128 216.884 191.128C216.223 191.128 215.647 191.016 215.156 190.792C214.676 190.568 214.308 190.259 214.052 189.864C213.796 189.469 213.668 189.021 213.668 188.52C213.668 187.72 213.967 187.091 214.564 186.632C215.172 186.173 216.106 185.944 217.364 185.944H219.348C219.348 185.4 219.183 184.984 218.852 184.696C218.522 184.397 218.026 184.248 217.364 184.248C216.906 184.248 216.452 184.323 216.004 184.472C215.567 184.611 215.194 184.803 214.884 185.048L213.988 183.304C214.458 182.973 215.018 182.717 215.668 182.536C216.33 182.355 217.007 182.264 217.7 182.264ZM217.508 189.448C217.935 189.448 218.314 189.352 218.644 189.16C218.975 188.957 219.21 188.664 219.348 188.28V187.4H217.636C216.612 187.4 216.1 187.736 216.1 188.408C216.1 188.728 216.223 188.984 216.468 189.176C216.724 189.357 217.071 189.448 217.508 189.448ZM232.64 191.128C231.722 191.128 230.896 190.941 230.16 190.568C229.434 190.184 228.864 189.656 228.448 188.984C228.042 188.312 227.84 187.549 227.84 186.696C227.84 185.843 228.042 185.08 228.448 184.408C228.864 183.736 229.434 183.213 230.16 182.84C230.896 182.456 231.722 182.264 232.64 182.264C233.546 182.264 234.336 182.456 235.008 182.84C235.69 183.213 236.186 183.752 236.496 184.456L234.56 185.496C234.112 184.707 233.466 184.312 232.624 184.312C231.973 184.312 231.434 184.525 231.008 184.952C230.581 185.379 230.368 185.96 230.368 186.696C230.368 187.432 230.581 188.013 231.008 188.44C231.434 188.867 231.973 189.08 232.624 189.08C233.477 189.08 234.122 188.685 234.56 187.896L236.496 188.952C236.186 189.635 235.69 190.168 235.008 190.552C234.336 190.936 233.546 191.128 232.64 191.128ZM241.935 191.128C241.028 191.128 240.212 190.941 239.487 190.568C238.772 190.184 238.212 189.656 237.807 188.984C237.402 188.312 237.199 187.549 237.199 186.696C237.199 185.843 237.402 185.08 237.807 184.408C238.212 183.736 238.772 183.213 239.487 182.84C240.212 182.456 241.028 182.264 241.935 182.264C242.842 182.264 243.652 182.456 244.367 182.84C245.082 183.213 245.642 183.736 246.047 184.408C246.452 185.08 246.655 185.843 246.655 186.696C246.655 187.549 246.452 188.312 246.047 188.984C245.642 189.656 245.082 190.184 244.367 190.568C243.652 190.941 242.842 191.128 241.935 191.128ZM241.935 189.08C242.575 189.08 243.098 188.867 243.503 188.44C243.919 188.003 244.127 187.421 244.127 186.696C244.127 185.971 243.919 185.395 243.503 184.968C243.098 184.531 242.575 184.312 241.935 184.312C241.295 184.312 240.767 184.531 240.351 184.968C239.935 185.395 239.727 185.971 239.727 186.696C239.727 187.421 239.935 188.003 240.351 188.44C240.767 188.867 241.295 189.08 241.935 189.08ZM58.4635 208.504C59.4768 208.845 59.9835 209.528 59.9835 210.552C59.9835 211.331 59.6902 211.933 59.1035 212.36C58.5168 212.787 57.6422 213 56.4795 213H51.8875V204.392H56.2875C57.3648 204.392 58.2075 204.589 58.8155 204.984C59.4235 205.368 59.7275 205.912 59.7275 206.616C59.7275 207.043 59.6155 207.421 59.3915 207.752C59.1782 208.072 58.8688 208.323 58.4635 208.504ZM54.1755 207.928H56.0635C56.9382 207.928 57.3755 207.619 57.3755 207C57.3755 206.392 56.9382 206.088 56.0635 206.088H54.1755V207.928ZM56.2715 211.304C57.1888 211.304 57.6475 210.989 57.6475 210.36C57.6475 210.029 57.5408 209.789 57.3275 209.64C57.1142 209.48 56.7782 209.4 56.3195 209.4H54.1755V211.304H56.2715ZM65.9366 213.128C65.0193 213.128 64.1926 212.941 63.4566 212.568C62.7313 212.184 62.1606 211.656 61.7446 210.984C61.3393 210.312 61.1366 209.549 61.1366 208.696C61.1366 207.843 61.3393 207.08 61.7446 206.408C62.1606 205.736 62.7313 205.213 63.4566 204.84C64.1926 204.456 65.0193 204.264 65.9366 204.264C66.8433 204.264 67.6326 204.456 68.3046 204.84C68.9873 205.213 69.4833 205.752 69.7926 206.456L67.8566 207.496C67.4086 206.707 66.7633 206.312 65.9206 206.312C65.27 206.312 64.7313 206.525 64.3046 206.952C63.878 207.379 63.6646 207.96 63.6646 208.696C63.6646 209.432 63.878 210.013 64.3046 210.44C64.7313 210.867 65.27 211.08 65.9206 211.08C66.774 211.08 67.4193 210.685 67.8566 209.896L69.7926 210.952C69.4833 211.635 68.9873 212.168 68.3046 212.552C67.6326 212.936 66.8433 213.128 65.9366 213.128ZM79.568 208.728C79.568 208.76 79.552 208.984 79.52 209.4H73.008C73.1253 209.933 73.4027 210.355 73.84 210.664C74.2773 210.973 74.8213 211.128 75.472 211.128C75.92 211.128 76.3147 211.064 76.656 210.936C77.008 210.797 77.3333 210.584 77.632 210.296L78.96 211.736C78.1493 212.664 76.9653 213.128 75.408 213.128C74.4373 213.128 73.5787 212.941 72.832 212.568C72.0853 212.184 71.5093 211.656 71.104 210.984C70.6987 210.312 70.496 209.549 70.496 208.696C70.496 207.853 70.6933 207.096 71.088 206.424C71.4933 205.741 72.0427 205.213 72.736 204.84C73.44 204.456 74.224 204.264 75.088 204.264C75.9307 204.264 76.6933 204.445 77.376 204.808C78.0587 205.171 78.592 205.693 78.976 206.376C79.3707 207.048 79.568 207.832 79.568 208.728ZM75.104 206.152C74.5387 206.152 74.064 206.312 73.68 206.632C73.296 206.952 73.0613 207.389 72.976 207.944H77.216C77.1307 207.4 76.896 206.968 76.512 206.648C76.128 206.317 75.6587 206.152 75.104 206.152ZM89.8813 213V207.848L87.3053 212.168H86.2493L83.7373 207.832V213H81.4813V204.392H84.0893L86.8413 209.368L89.7693 204.392H92.1053L92.1373 213H89.8813ZM94.5281 204.392H97.0081V209.512L101.2 204.392H103.488V213H101.008V207.88L96.8321 213H94.5281V204.392ZM118.979 204.392V213H116.483V206.44H112.899V213H110.419V204.392H118.979ZM125.404 213.128C124.497 213.128 123.681 212.941 122.956 212.568C122.241 212.184 121.681 211.656 121.276 210.984C120.871 210.312 120.668 209.549 120.668 208.696C120.668 207.843 120.871 207.08 121.276 206.408C121.681 205.736 122.241 205.213 122.956 204.84C123.681 204.456 124.497 204.264 125.404 204.264C126.311 204.264 127.121 204.456 127.836 204.84C128.551 205.213 129.111 205.736 129.516 206.408C129.921 207.08 130.124 207.843 130.124 208.696C130.124 209.549 129.921 210.312 129.516 210.984C129.111 211.656 128.551 212.184 127.836 212.568C127.121 212.941 126.311 213.128 125.404 213.128ZM125.404 211.08C126.044 211.08 126.567 210.867 126.972 210.44C127.388 210.003 127.596 209.421 127.596 208.696C127.596 207.971 127.388 207.395 126.972 206.968C126.567 206.531 126.044 206.312 125.404 206.312C124.764 206.312 124.236 206.531 123.82 206.968C123.404 207.395 123.196 207.971 123.196 208.696C123.196 209.421 123.404 210.003 123.82 210.44C124.236 210.867 124.764 211.08 125.404 211.08ZM135.937 213.128C135.019 213.128 134.193 212.941 133.457 212.568C132.731 212.184 132.161 211.656 131.745 210.984C131.339 210.312 131.137 209.549 131.137 208.696C131.137 207.843 131.339 207.08 131.745 206.408C132.161 205.736 132.731 205.213 133.457 204.84C134.193 204.456 135.019 204.264 135.937 204.264C136.843 204.264 137.633 204.456 138.305 204.84C138.987 205.213 139.483 205.752 139.793 206.456L137.857 207.496C137.409 206.707 136.763 206.312 135.921 206.312C135.27 206.312 134.731 206.525 134.305 206.952C133.878 207.379 133.665 207.96 133.665 208.696C133.665 209.432 133.878 210.013 134.305 210.44C134.731 210.867 135.27 211.08 135.921 211.08C136.774 211.08 137.419 210.685 137.857 209.896L139.793 210.952C139.483 211.635 138.987 212.168 138.305 212.552C137.633 212.936 136.843 213.128 135.937 213.128ZM148.51 206.44H145.598V213H143.118V206.44H140.206V204.392H148.51V206.44ZM153.185 204.264C154.518 204.264 155.542 204.584 156.257 205.224C156.971 205.853 157.329 206.808 157.329 208.088V213H154.993V211.928C154.523 212.728 153.649 213.128 152.369 213.128C151.707 213.128 151.131 213.016 150.641 212.792C150.161 212.568 149.793 212.259 149.537 211.864C149.281 211.469 149.153 211.021 149.153 210.52C149.153 209.72 149.451 209.091 150.049 208.632C150.657 208.173 151.59 207.944 152.849 207.944H154.833C154.833 207.4 154.667 206.984 154.337 206.696C154.006 206.397 153.51 206.248 152.849 206.248C152.39 206.248 151.937 206.323 151.489 206.472C151.051 206.611 150.678 206.803 150.369 207.048L149.473 205.304C149.942 204.973 150.502 204.717 151.153 204.536C151.814 204.355 152.491 204.264 153.185 204.264ZM152.993 211.448C153.419 211.448 153.798 211.352 154.129 211.16C154.459 210.957 154.694 210.664 154.833 210.28V209.4H153.121C152.097 209.4 151.585 209.736 151.585 210.408C151.585 210.728 151.707 210.984 151.953 211.176C152.209 211.357 152.555 211.448 152.993 211.448ZM166.073 208.504C167.086 208.845 167.593 209.528 167.593 210.552C167.593 211.331 167.3 211.933 166.713 212.36C166.126 212.787 165.252 213 164.089 213H159.497V204.392H163.897C164.974 204.392 165.817 204.589 166.425 204.984C167.033 205.368 167.337 205.912 167.337 206.616C167.337 207.043 167.225 207.421 167.001 207.752C166.788 208.072 166.478 208.323 166.073 208.504ZM161.785 207.928H163.673C164.548 207.928 164.985 207.619 164.985 207C164.985 206.392 164.548 206.088 163.673 206.088H161.785V207.928ZM163.881 211.304C164.798 211.304 165.257 210.989 165.257 210.36C165.257 210.029 165.15 209.789 164.937 209.64C164.724 209.48 164.388 209.4 163.929 209.4H161.785V211.304H163.881ZM182.586 204.392V213H169.45V204.392H171.93V210.952H174.794V204.392H177.274V210.952H180.106V204.392H182.586ZM183.786 210.952V214.712H181.466V213H180.042V210.952H183.786ZM184.981 204.392H187.461V209.512L191.653 204.392H193.941V213H191.461V207.88L187.285 213H184.981V204.392ZM200.133 209.736H198.837V213H196.341V204.392H198.837V207.736H200.181L202.517 204.392H205.173L202.165 208.52L205.381 213H202.437L200.133 209.736ZM209.794 204.264C211.127 204.264 212.151 204.584 212.866 205.224C213.581 205.853 213.938 206.808 213.938 208.088V213H211.602V211.928C211.133 212.728 210.258 213.128 208.978 213.128C208.317 213.128 207.741 213.016 207.25 212.792C206.77 212.568 206.402 212.259 206.146 211.864C205.89 211.469 205.762 211.021 205.762 210.52C205.762 209.72 206.061 209.091 206.658 208.632C207.266 208.173 208.199 207.944 209.458 207.944H211.442C211.442 207.4 211.277 206.984 210.946 206.696C210.615 206.397 210.119 206.248 209.458 206.248C208.999 206.248 208.546 206.323 208.098 206.472C207.661 206.611 207.287 206.803 206.978 207.048L206.082 205.304C206.551 204.973 207.111 204.717 207.762 204.536C208.423 204.355 209.101 204.264 209.794 204.264ZM209.602 211.448C210.029 211.448 210.407 211.352 210.738 211.16C211.069 210.957 211.303 210.664 211.442 210.28V209.4H209.73C208.706 209.4 208.194 209.736 208.194 210.408C208.194 210.728 208.317 210.984 208.562 211.176C208.818 211.357 209.165 211.448 209.602 211.448ZM224.506 213V207.848L221.93 212.168H220.874L218.362 207.832V213H216.106V204.392H218.714L221.466 209.368L224.394 204.392H226.73L226.762 213H224.506ZM229.153 204.392H231.633V209.512L235.825 204.392H238.113V213H235.633V207.88L231.457 213H229.153V204.392Z" fill="#545365"/>
</svg>
