<svg width="290" height="250" viewBox="0 0 290 250" fill="none" xmlns="http://www.w3.org/2000/svg">
<rect width="290" height="250" fill="#FFF5E4"/>
<path d="M119.341 47.0499L120.649 47.5188C122.821 48.3086 125.264 48.1605 127.337 47.1486L128.868 46.4082C131.632 45.0754 134.865 44.878 137.753 45.8652L168.234 56.3793C168.826 56.5767 169.246 57.1691 169.221 57.8108C169.196 58.0329 169.023 63.2159 165.371 65.7333C163.1 67.2882 160.163 67.461 156.584 66.227L145.206 62.3274C144.244 64.8942 141.702 70.0772 136.42 72.9155C134.001 74.2236 131.336 74.8653 128.423 74.8653C125.881 74.8653 123.142 74.3717 120.254 73.3844M119.341 47.0499L118.033 46.581C117.909 46.5069 117.786 46.4329 117.662 46.3835L102.064 41.0771C101.694 40.9537 101.274 40.9784 100.929 41.1512C100.583 41.3239 100.312 41.6201 100.188 41.9903L87.0828 80.221C86.8113 80.9861 87.2309 81.8253 87.996 82.0968L103.619 87.4525C103.792 87.5266 103.94 87.5513 104.113 87.5513C104.335 87.5513 104.557 87.5019 104.754 87.4032C105.1 87.2304 105.371 86.9342 105.495 86.564L119.341 47.0499ZM192.051 87.403L172.059 50.6285C171.714 49.8881 172.01 49.0242 172.75 48.654L187.583 41.3978C187.929 41.2251 188.349 41.2004 188.719 41.3238C189.089 41.4472 189.385 41.7187 189.558 42.0642L207.378 78.2711C207.723 79.0115 207.427 79.8754 206.686 80.2456L192.051 87.403ZM192.051 87.403L185.609 93.3265C180.475 98.0405 174.725 101.989 168.456 105.05L140.048 118.945C139.184 119.365 138.246 119.587 137.308 119.587C136.617 119.587 135.926 119.464 135.26 119.241C133.68 118.698 132.397 117.563 131.657 116.058C131.114 114.996 130.916 113.836 131.04 112.676M154.388 101.249L131.04 112.676M131.04 112.676L128.349 114.009C127.461 114.453 126.523 114.651 125.61 114.651C123.29 114.651 121.068 113.367 119.982 111.146C119.39 109.912 119.242 108.604 119.439 107.37M142.245 96.2141L119.439 107.37M119.439 107.37C119.168 107.395 118.897 107.419 118.625 107.419C116.305 107.419 114.084 106.136 112.998 103.915C111.788 101.446 112.356 98.5588 114.232 96.7077M134.643 86.712L114.232 96.7077M114.232 96.7077C113.096 96.0907 112.159 95.1528 111.591 93.9682C110.851 92.4626 110.752 90.7596 111.295 89.1801C111.838 87.6005 112.973 86.3171 114.479 85.5766L125.314 80.2703" stroke="#F6A219" stroke-width="2"/>
<path d="M35.1815 157.8H36.7655V166.44L43.3895 157.8H44.8615V169H43.2935V160.376L36.6535 169H35.1815V157.8ZM48.0974 160.52H49.6334V164.12H54.4654V160.52H56.0014V169H54.4654V165.448H49.6334V169H48.0974V160.52ZM67.612 167.656V170.968H66.172V169H59.084V170.968H57.628V167.656H58.076C58.62 167.624 58.9933 167.24 59.196 166.504C59.3987 165.768 59.5373 164.728 59.612 163.384L59.74 160.52H66.316V167.656H67.612ZM61.02 163.496C60.9773 164.563 60.8867 165.448 60.748 166.152C60.62 166.845 60.38 167.347 60.028 167.656H64.78V161.864H61.1L61.02 163.496ZM69.613 160.52H71.149V166.696L76.349 160.52H77.741V169H76.205V162.824L71.021 169H69.613V160.52ZM86.4984 164.6C87.597 164.877 88.1464 165.565 88.1464 166.664C88.1464 167.411 87.8637 167.987 87.2984 168.392C86.7437 168.797 85.9117 169 84.8024 169H80.7224V160.52H84.6584C85.661 160.52 86.445 160.712 87.0104 161.096C87.5757 161.469 87.8584 162.003 87.8584 162.696C87.8584 163.144 87.7357 163.533 87.4904 163.864C87.2557 164.184 86.925 164.429 86.4984 164.6ZM82.2264 164.168H84.5304C85.117 164.168 85.5597 164.061 85.8584 163.848C86.1677 163.635 86.3224 163.325 86.3224 162.92C86.3224 162.109 85.725 161.704 84.5304 161.704H82.2264V164.168ZM84.6904 167.816C85.3304 167.816 85.8104 167.715 86.1304 167.512C86.4504 167.309 86.6104 166.995 86.6104 166.568C86.6104 166.131 86.461 165.805 86.1624 165.592C85.8744 165.379 85.4157 165.272 84.7864 165.272H82.2264V167.816H84.6904ZM90.5505 160.52H92.0865V166.696L97.2865 160.52H98.6785V169H97.1425V162.824L91.9585 169H90.5505V160.52ZM110.284 167.656V170.968H108.844V169H101.756V170.968H100.3V167.656H100.748C101.292 167.624 101.665 167.24 101.868 166.504C102.071 165.768 102.209 164.728 102.284 163.384L102.412 160.52H108.988V167.656H110.284ZM103.692 163.496C103.649 164.563 103.559 165.448 103.42 166.152C103.292 166.845 103.052 167.347 102.7 167.656H107.452V161.864H103.772L103.692 163.496ZM119.853 160.52L115.741 169.848C115.378 170.712 114.952 171.32 114.461 171.672C113.981 172.024 113.4 172.2 112.717 172.2C112.301 172.2 111.896 172.131 111.501 171.992C111.117 171.864 110.797 171.672 110.541 171.416L111.197 170.264C111.634 170.68 112.141 170.888 112.717 170.888C113.09 170.888 113.4 170.787 113.645 170.584C113.901 170.392 114.13 170.056 114.333 169.576L114.605 168.984L110.861 160.52H112.461L115.421 167.304L118.349 160.52H119.853ZM124.184 160.44C125.357 160.44 126.253 160.728 126.872 161.304C127.501 161.88 127.816 162.739 127.816 163.88V169H126.36V167.88C126.104 168.275 125.736 168.579 125.256 168.792C124.787 168.995 124.227 169.096 123.576 169.096C122.627 169.096 121.864 168.867 121.288 168.408C120.723 167.949 120.44 167.347 120.44 166.6C120.44 165.853 120.712 165.256 121.256 164.808C121.8 164.349 122.664 164.12 123.848 164.12H126.28V163.816C126.28 163.155 126.088 162.648 125.704 162.296C125.32 161.944 124.755 161.768 124.008 161.768C123.507 161.768 123.016 161.853 122.536 162.024C122.056 162.184 121.651 162.403 121.32 162.68L120.68 161.528C121.117 161.176 121.64 160.909 122.248 160.728C122.856 160.536 123.501 160.44 124.184 160.44ZM123.832 167.912C124.419 167.912 124.925 167.784 125.352 167.528C125.779 167.261 126.088 166.888 126.28 166.408V165.224H123.912C122.611 165.224 121.96 165.661 121.96 166.536C121.96 166.963 122.125 167.299 122.456 167.544C122.787 167.789 123.245 167.912 123.832 167.912ZM137.862 160.52V169H136.326V161.864H132.678L132.582 163.752C132.528 164.893 132.427 165.848 132.278 166.616C132.128 167.373 131.883 167.981 131.542 168.44C131.2 168.899 130.726 169.128 130.118 169.128C129.84 169.128 129.526 169.08 129.174 168.984L129.27 167.688C129.408 167.72 129.536 167.736 129.654 167.736C130.08 167.736 130.4 167.549 130.614 167.176C130.827 166.803 130.966 166.36 131.03 165.848C131.094 165.336 131.152 164.605 131.206 163.656L131.35 160.52H137.862ZM144.752 163.4C145.829 163.411 146.65 163.656 147.216 164.136C147.781 164.616 148.064 165.293 148.064 166.168C148.064 167.085 147.754 167.795 147.136 168.296C146.528 168.787 145.653 169.027 144.512 169.016L140.832 169V160.52H142.368V163.384L144.752 163.4ZM144.384 167.848C145.077 167.859 145.6 167.72 145.952 167.432C146.314 167.144 146.496 166.717 146.496 166.152C146.496 165.597 146.32 165.192 145.968 164.936C145.626 164.68 145.098 164.547 144.384 164.536L142.368 164.504V167.832L144.384 167.848ZM150.035 160.52H151.571V164.12H156.403V160.52H157.939V169H156.403V165.448H151.571V169H150.035V160.52ZM163.95 160.44C165.123 160.44 166.019 160.728 166.638 161.304C167.267 161.88 167.582 162.739 167.582 163.88V169H166.126V167.88C165.87 168.275 165.502 168.579 165.022 168.792C164.552 168.995 163.992 169.096 163.342 169.096C162.392 169.096 161.63 168.867 161.054 168.408C160.488 167.949 160.206 167.347 160.206 166.6C160.206 165.853 160.478 165.256 161.022 164.808C161.566 164.349 162.43 164.12 163.614 164.12H166.046V163.816C166.046 163.155 165.854 162.648 165.47 162.296C165.086 161.944 164.52 161.768 163.774 161.768C163.272 161.768 162.782 161.853 162.302 162.024C161.822 162.184 161.416 162.403 161.086 162.68L160.446 161.528C160.883 161.176 161.406 160.909 162.014 160.728C162.622 160.536 163.267 160.44 163.95 160.44ZM163.598 167.912C164.184 167.912 164.691 167.784 165.118 167.528C165.544 167.261 165.854 166.888 166.046 166.408V165.224H163.678C162.376 165.224 161.726 165.661 161.726 166.536C161.726 166.963 161.891 167.299 162.222 167.544C162.552 167.789 163.011 167.912 163.598 167.912ZM177.147 160.52V169H175.771V166.312H173.307H173.131L171.275 169H169.627L171.691 166.104C171.051 165.912 170.561 165.597 170.219 165.16C169.878 164.712 169.707 164.157 169.707 163.496C169.707 162.525 170.038 161.789 170.699 161.288C171.361 160.776 172.273 160.52 173.435 160.52H177.147ZM171.275 163.544C171.275 164.109 171.451 164.531 171.803 164.808C172.166 165.075 172.705 165.208 173.419 165.208H175.771V161.864H173.483C172.011 161.864 171.275 162.424 171.275 163.544ZM188.937 160.44C189.758 160.44 190.494 160.621 191.145 160.984C191.796 161.347 192.302 161.853 192.665 162.504C193.038 163.155 193.225 163.907 193.225 164.76C193.225 165.613 193.038 166.371 192.665 167.032C192.302 167.683 191.796 168.189 191.145 168.552C190.494 168.915 189.758 169.096 188.937 169.096C188.329 169.096 187.769 168.979 187.257 168.744C186.756 168.509 186.329 168.168 185.977 167.72V172.104H184.441V160.52H185.913V161.864C186.254 161.395 186.686 161.043 187.209 160.808C187.732 160.563 188.308 160.44 188.937 160.44ZM188.809 167.752C189.353 167.752 189.838 167.629 190.265 167.384C190.702 167.128 191.044 166.776 191.289 166.328C191.545 165.869 191.673 165.347 191.673 164.76C191.673 164.173 191.545 163.656 191.289 163.208C191.044 162.749 190.702 162.397 190.265 162.152C189.838 161.907 189.353 161.784 188.809 161.784C188.276 161.784 187.79 161.912 187.353 162.168C186.926 162.413 186.585 162.76 186.329 163.208C186.084 163.656 185.961 164.173 185.961 164.76C185.961 165.347 186.084 165.869 186.329 166.328C186.574 166.776 186.916 167.128 187.353 167.384C187.79 167.629 188.276 167.752 188.809 167.752ZM198.403 160.44C199.576 160.44 200.472 160.728 201.091 161.304C201.72 161.88 202.035 162.739 202.035 163.88V169H200.579V167.88C200.323 168.275 199.955 168.579 199.475 168.792C199.005 168.995 198.445 169.096 197.795 169.096C196.845 169.096 196.083 168.867 195.507 168.408C194.941 167.949 194.659 167.347 194.659 166.6C194.659 165.853 194.931 165.256 195.475 164.808C196.019 164.349 196.883 164.12 198.067 164.12H200.499V163.816C200.499 163.155 200.307 162.648 199.923 162.296C199.539 161.944 198.973 161.768 198.227 161.768C197.725 161.768 197.235 161.853 196.755 162.024C196.275 162.184 195.869 162.403 195.539 162.68L194.899 161.528C195.336 161.176 195.859 160.909 196.467 160.728C197.075 160.536 197.72 160.44 198.403 160.44ZM198.051 167.912C198.637 167.912 199.144 167.784 199.571 167.528C199.997 167.261 200.307 166.888 200.499 166.408V165.224H198.131C196.829 165.224 196.179 165.661 196.179 166.536C196.179 166.963 196.344 167.299 196.675 167.544C197.005 167.789 197.464 167.912 198.051 167.912ZM209.121 160.808C209.91 160.808 210.614 160.984 211.233 161.336C211.851 161.688 212.331 162.179 212.673 162.808C213.025 163.427 213.201 164.136 213.201 164.936C213.201 165.757 213.014 166.488 212.641 167.128C212.278 167.757 211.761 168.248 211.089 168.6C210.427 168.952 209.67 169.128 208.817 169.128C207.377 169.128 206.262 168.637 205.473 167.656C204.694 166.664 204.305 165.272 204.305 163.48C204.305 161.741 204.662 160.381 205.377 159.4C206.091 158.408 207.185 157.752 208.657 157.432L212.529 156.568L212.753 157.976L209.185 158.744C208.075 158.989 207.249 159.405 206.705 159.992C206.161 160.579 205.851 161.421 205.777 162.52C206.139 161.976 206.609 161.555 207.185 161.256C207.761 160.957 208.406 160.808 209.121 160.808ZM208.849 167.848C209.393 167.848 209.873 167.725 210.289 167.48C210.715 167.235 211.046 166.899 211.281 166.472C211.515 166.035 211.633 165.539 211.633 164.984C211.633 164.141 211.377 163.464 210.865 162.952C210.353 162.44 209.681 162.184 208.849 162.184C208.017 162.184 207.339 162.44 206.817 162.952C206.305 163.464 206.049 164.141 206.049 164.984C206.049 165.539 206.166 166.035 206.401 166.472C206.646 166.899 206.982 167.235 207.409 167.48C207.835 167.725 208.315 167.848 208.849 167.848ZM219.026 169.096C218.184 169.096 217.426 168.909 216.754 168.536C216.082 168.163 215.554 167.651 215.17 167C214.797 166.339 214.61 165.592 214.61 164.76C214.61 163.928 214.797 163.187 215.17 162.536C215.554 161.875 216.082 161.363 216.754 161C217.426 160.627 218.184 160.44 219.026 160.44C219.869 160.44 220.621 160.627 221.282 161C221.954 161.363 222.477 161.875 222.85 162.536C223.234 163.187 223.426 163.928 223.426 164.76C223.426 165.592 223.234 166.339 222.85 167C222.477 167.651 221.954 168.163 221.282 168.536C220.621 168.909 219.869 169.096 219.026 169.096ZM219.026 167.752C219.57 167.752 220.056 167.629 220.482 167.384C220.92 167.128 221.261 166.776 221.506 166.328C221.752 165.869 221.874 165.347 221.874 164.76C221.874 164.173 221.752 163.656 221.506 163.208C221.261 162.749 220.92 162.397 220.482 162.152C220.056 161.907 219.57 161.784 219.026 161.784C218.482 161.784 217.992 161.907 217.554 162.152C217.128 162.397 216.786 162.749 216.53 163.208C216.285 163.656 216.162 164.173 216.162 164.76C216.162 165.347 216.285 165.869 216.53 166.328C216.786 166.776 217.128 167.128 217.554 167.384C217.992 167.629 218.482 167.752 219.026 167.752ZM231.652 161.864H228.548V169H227.012V161.864H223.908V160.52H231.652V161.864ZM236.246 160.44C237.42 160.44 238.316 160.728 238.934 161.304C239.564 161.88 239.878 162.739 239.878 163.88V169H238.422V167.88C238.166 168.275 237.798 168.579 237.318 168.792C236.849 168.995 236.289 169.096 235.638 169.096C234.689 169.096 233.926 168.867 233.35 168.408C232.785 167.949 232.502 167.347 232.502 166.6C232.502 165.853 232.774 165.256 233.318 164.808C233.862 164.349 234.726 164.12 235.91 164.12H238.342V163.816C238.342 163.155 238.15 162.648 237.766 162.296C237.382 161.944 236.817 161.768 236.07 161.768C235.569 161.768 235.078 161.853 234.598 162.024C234.118 162.184 233.713 162.403 233.382 162.68L232.742 161.528C233.18 161.176 233.702 160.909 234.31 160.728C234.918 160.536 235.564 160.44 236.246 160.44ZM235.894 167.912C236.481 167.912 236.988 167.784 237.414 167.528C237.841 167.261 238.15 166.888 238.342 166.408V165.224H235.974C234.673 165.224 234.022 165.661 234.022 166.536C234.022 166.963 234.188 167.299 234.518 167.544C234.849 167.789 235.308 167.912 235.894 167.912ZM246.941 160.52H248.477V166.696L253.677 160.52H255.069V169H253.533V162.824L248.349 169H246.941V160.52ZM48.0882 184.44H43.6722V191H41.1922V182.392H48.0882V184.44ZM49.4109 182.392H51.8909V187.512L56.0829 182.392H58.3709V191H55.8909V185.88L51.7149 191H49.4109V182.392ZM65.7463 182.984C66.5676 182.984 67.2876 183.155 67.9063 183.496C68.525 183.827 68.9996 184.296 69.3303 184.904C69.6716 185.512 69.8423 186.216 69.8423 187.016C69.8423 187.837 69.6396 188.568 69.2343 189.208C68.8396 189.837 68.285 190.328 67.5703 190.68C66.8556 191.021 66.045 191.192 65.1383 191.192C63.6343 191.192 62.4503 190.712 61.5863 189.752C60.733 188.781 60.3063 187.363 60.3063 185.496C60.3063 183.768 60.6796 182.392 61.4263 181.368C62.1836 180.333 63.341 179.656 64.8983 179.336L68.9943 178.52L69.3303 180.664L65.7143 181.384C64.733 181.576 64.0023 181.896 63.5223 182.344C63.053 182.792 62.7756 183.427 62.6903 184.248C63.0636 183.843 63.5116 183.533 64.0343 183.32C64.557 183.096 65.1276 182.984 65.7463 182.984ZM65.1543 189.256C65.7943 189.256 66.3063 189.048 66.6903 188.632C67.085 188.216 67.2823 187.688 67.2823 187.048C67.2823 186.397 67.085 185.88 66.6903 185.496C66.3063 185.112 65.7943 184.92 65.1543 184.92C64.5036 184.92 63.981 185.112 63.5863 185.496C63.1916 185.88 62.9943 186.397 62.9943 187.048C62.9943 187.699 63.197 188.232 63.6023 188.648C64.0076 189.053 64.525 189.256 65.1543 189.256ZM75.3279 187.736H74.0319V191H71.5359V182.392H74.0319V185.736H75.3759L77.7119 182.392H80.3679L77.3599 186.52L80.5759 191H77.6319L75.3279 187.736ZM81.8016 182.392H84.2816V187.512L88.4736 182.392H90.7616V191H88.2816V185.88L84.1056 191H81.8016V182.392ZM93.1609 182.392H95.6409V187.512L99.8329 182.392H102.121V191H99.6409V185.88L95.4649 191H93.1609V182.392ZM97.4809 181.464C95.6036 181.464 94.6596 180.637 94.6489 178.984H96.2809C96.2916 179.357 96.3929 179.651 96.5849 179.864C96.7876 180.067 97.0809 180.168 97.4649 180.168C97.8489 180.168 98.1423 180.067 98.3449 179.864C98.5583 179.651 98.6649 179.357 98.6649 178.984H100.329C100.318 180.637 99.3689 181.464 97.4809 181.464ZM117.612 182.392V191H115.116V184.44H111.532V191H109.052V182.392H117.612ZM124.037 191.128C123.13 191.128 122.314 190.941 121.589 190.568C120.874 190.184 120.314 189.656 119.909 188.984C119.503 188.312 119.301 187.549 119.301 186.696C119.301 185.843 119.503 185.08 119.909 184.408C120.314 183.736 120.874 183.213 121.589 182.84C122.314 182.456 123.13 182.264 124.037 182.264C124.943 182.264 125.754 182.456 126.469 182.84C127.183 183.213 127.743 183.736 128.149 184.408C128.554 185.08 128.757 185.843 128.757 186.696C128.757 187.549 128.554 188.312 128.149 188.984C127.743 189.656 127.183 190.184 126.469 190.568C125.754 190.941 124.943 191.128 124.037 191.128ZM124.037 189.08C124.677 189.08 125.199 188.867 125.605 188.44C126.021 188.003 126.229 187.421 126.229 186.696C126.229 185.971 126.021 185.395 125.605 184.968C125.199 184.531 124.677 184.312 124.037 184.312C123.397 184.312 122.869 184.531 122.453 184.968C122.037 185.395 121.829 185.971 121.829 186.696C121.829 187.421 122.037 188.003 122.453 188.44C122.869 188.867 123.397 189.08 124.037 189.08ZM139.996 188.952V192.856H137.676V191H131.628V192.856H129.308V188.952H129.66C130.194 188.941 130.562 188.627 130.764 188.008C130.967 187.389 131.095 186.509 131.148 185.368L131.26 182.392H138.764V188.952H139.996ZM133.404 185.544C133.372 186.419 133.303 187.133 133.196 187.688C133.1 188.243 132.914 188.664 132.636 188.952H136.268V184.44H133.452L133.404 185.544ZM146.975 191L145.087 188.36L143.135 191H140.415L143.727 186.664L140.527 182.392H143.327L145.151 184.904L147.023 182.392H149.679L146.479 186.6L149.807 191H146.975ZM154.802 191.128C153.896 191.128 153.08 190.941 152.354 190.568C151.64 190.184 151.08 189.656 150.674 188.984C150.269 188.312 150.066 187.549 150.066 186.696C150.066 185.843 150.269 185.08 150.674 184.408C151.08 183.736 151.64 183.213 152.354 182.84C153.08 182.456 153.896 182.264 154.802 182.264C155.709 182.264 156.52 182.456 157.234 182.84C157.949 183.213 158.509 183.736 158.914 184.408C159.32 185.08 159.522 185.843 159.522 186.696C159.522 187.549 159.32 188.312 158.914 188.984C158.509 189.656 157.949 190.184 157.234 190.568C156.52 190.941 155.709 191.128 154.802 191.128ZM154.802 189.08C155.442 189.08 155.965 188.867 156.37 188.44C156.786 188.003 156.994 187.421 156.994 186.696C156.994 185.971 156.786 185.395 156.37 184.968C155.965 184.531 155.442 184.312 154.802 184.312C154.162 184.312 153.634 184.531 153.218 184.968C152.802 185.395 152.594 185.971 152.594 186.696C152.594 187.421 152.802 188.003 153.218 188.44C153.634 188.867 154.162 189.08 154.802 189.08ZM170.762 188.952V192.856H168.442V191H162.394V192.856H160.074V188.952H160.426C160.959 188.941 161.327 188.627 161.53 188.008C161.733 187.389 161.861 186.509 161.914 185.368L162.026 182.392H169.53V188.952H170.762ZM164.17 185.544C164.138 186.419 164.069 187.133 163.962 187.688C163.866 188.243 163.679 188.664 163.402 188.952H167.034V184.44H164.218L164.17 185.544ZM180.656 187.736H179.36V191H176.864V182.392H179.36V185.736H180.704L183.04 182.392H185.696L182.688 186.52L185.904 191H182.96L180.656 187.736ZM198.237 186.504C199.25 186.845 199.757 187.528 199.757 188.552C199.757 189.331 199.464 189.933 198.877 190.36C198.29 190.787 197.416 191 196.253 191H191.661V182.392H196.061C197.138 182.392 197.981 182.589 198.589 182.984C199.197 183.368 199.501 183.912 199.501 184.616C199.501 185.043 199.389 185.421 199.165 185.752C198.952 186.072 198.642 186.323 198.237 186.504ZM193.949 185.928H195.837C196.712 185.928 197.149 185.619 197.149 185C197.149 184.392 196.712 184.088 195.837 184.088H193.949V185.928ZM196.045 189.304C196.962 189.304 197.421 188.989 197.421 188.36C197.421 188.029 197.314 187.789 197.101 187.64C196.888 187.48 196.552 187.4 196.093 187.4H193.949V189.304H196.045ZM204.958 182.264C206.291 182.264 207.315 182.584 208.03 183.224C208.745 183.853 209.102 184.808 209.102 186.088V191H206.766V189.928C206.297 190.728 205.422 191.128 204.142 191.128C203.481 191.128 202.905 191.016 202.414 190.792C201.934 190.568 201.566 190.259 201.31 189.864C201.054 189.469 200.926 189.021 200.926 188.52C200.926 187.72 201.225 187.091 201.822 186.632C202.43 186.173 203.363 185.944 204.622 185.944H206.606C206.606 185.4 206.441 184.984 206.11 184.696C205.779 184.397 205.283 184.248 204.622 184.248C204.163 184.248 203.71 184.323 203.262 184.472C202.825 184.611 202.451 184.803 202.142 185.048L201.246 183.304C201.715 182.973 202.275 182.717 202.926 182.536C203.587 182.355 204.265 182.264 204.958 182.264ZM204.766 189.448C205.193 189.448 205.571 189.352 205.902 189.16C206.233 188.957 206.467 188.664 206.606 188.28V187.4H204.894C203.87 187.4 203.358 187.736 203.358 188.408C203.358 188.728 203.481 188.984 203.726 189.176C203.982 189.357 204.329 189.448 204.766 189.448ZM224.406 182.392V191H211.27V182.392H213.75V188.952H216.614V182.392H219.094V188.952H221.926V182.392H224.406ZM226.802 182.392H229.282V187.512L233.474 182.392H235.762V191H233.282V185.88L229.106 191H226.802V182.392ZM246.561 191V185.848L243.985 190.168H242.929L240.417 185.832V191H238.161V182.392H240.769L243.521 187.368L246.449 182.392H248.785L248.817 191H246.561ZM115.589 208.52C116.101 208.68 116.495 208.925 116.773 209.256C117.061 209.587 117.205 209.981 117.205 210.44C117.205 210.984 117.018 211.464 116.645 211.88C116.271 212.285 115.759 212.6 115.109 212.824C114.458 213.048 113.722 213.16 112.901 213.16C112.229 213.16 111.567 213.091 110.917 212.952C110.266 212.813 109.663 212.605 109.109 212.328L109.781 210.584C110.687 211.021 111.69 211.24 112.789 211.24C113.375 211.24 113.834 211.155 114.165 210.984C114.506 210.803 114.677 210.552 114.677 210.232C114.677 209.955 114.559 209.747 114.325 209.608C114.09 209.459 113.749 209.384 113.301 209.384H111.541V207.832H113.077C113.514 207.832 113.85 207.763 114.085 207.624C114.319 207.485 114.437 207.283 114.437 207.016C114.437 206.739 114.287 206.525 113.989 206.376C113.701 206.227 113.285 206.152 112.741 206.152C111.909 206.152 111.002 206.349 110.021 206.744L109.413 205.016C110.607 204.493 111.77 204.232 112.901 204.232C113.679 204.232 114.373 204.328 114.981 204.52C115.599 204.712 116.085 204.995 116.437 205.368C116.789 205.731 116.965 206.157 116.965 206.648C116.965 207.053 116.842 207.421 116.597 207.752C116.351 208.072 116.015 208.328 115.589 208.52ZM122.364 204.264C123.698 204.264 124.722 204.584 125.436 205.224C126.151 205.853 126.508 206.808 126.508 208.088V213H124.172V211.928C123.703 212.728 122.828 213.128 121.548 213.128C120.887 213.128 120.311 213.016 119.82 212.792C119.34 212.568 118.972 212.259 118.716 211.864C118.46 211.469 118.332 211.021 118.332 210.52C118.332 209.72 118.631 209.091 119.228 208.632C119.836 208.173 120.77 207.944 122.028 207.944H124.012C124.012 207.4 123.847 206.984 123.516 206.696C123.186 206.397 122.69 206.248 122.028 206.248C121.57 206.248 121.116 206.323 120.668 206.472C120.231 206.611 119.858 206.803 119.548 207.048L118.652 205.304C119.122 204.973 119.682 204.717 120.332 204.536C120.994 204.355 121.671 204.264 122.364 204.264ZM122.172 211.448C122.599 211.448 122.978 211.352 123.308 211.16C123.639 210.957 123.874 210.664 124.012 210.28V209.4H122.3C121.276 209.4 120.764 209.736 120.764 210.408C120.764 210.728 120.887 210.984 121.132 211.176C121.388 211.357 121.735 211.448 122.172 211.448ZM138.325 210.952V214.856H136.005V213H129.957V214.856H127.637V210.952H127.989C128.522 210.941 128.89 210.627 129.093 210.008C129.295 209.389 129.423 208.509 129.477 207.368L129.589 204.392H137.093V210.952H138.325ZM131.733 207.544C131.701 208.419 131.631 209.133 131.525 209.688C131.429 210.243 131.242 210.664 130.965 210.952H134.597V206.44H131.781L131.733 207.544ZM143.239 204.264C144.573 204.264 145.597 204.584 146.311 205.224C147.026 205.853 147.383 206.808 147.383 208.088V213H145.047V211.928C144.578 212.728 143.703 213.128 142.423 213.128C141.762 213.128 141.186 213.016 140.695 212.792C140.215 212.568 139.847 212.259 139.591 211.864C139.335 211.469 139.207 211.021 139.207 210.52C139.207 209.72 139.506 209.091 140.103 208.632C140.711 208.173 141.645 207.944 142.903 207.944H144.887C144.887 207.4 144.722 206.984 144.391 206.696C144.061 206.397 143.565 206.248 142.903 206.248C142.445 206.248 141.991 206.323 141.543 206.472C141.106 206.611 140.733 206.803 140.423 207.048L139.527 205.304C139.997 204.973 140.557 204.717 141.207 204.536C141.869 204.355 142.546 204.264 143.239 204.264ZM143.047 211.448C143.474 211.448 143.853 211.352 144.183 211.16C144.514 210.957 144.749 210.664 144.887 210.28V209.4H143.175C142.151 209.4 141.639 209.736 141.639 210.408C141.639 210.728 141.762 210.984 142.007 211.176C142.263 211.357 142.61 211.448 143.047 211.448ZM157.296 204.392V213H154.8V209.8C154.074 210.163 153.274 210.344 152.4 210.344C151.237 210.344 150.357 210.083 149.76 209.56C149.173 209.027 148.88 208.205 148.88 207.096V204.392H151.376V206.936C151.376 207.459 151.509 207.837 151.776 208.072C152.053 208.307 152.448 208.424 152.96 208.424C153.61 208.424 154.224 208.285 154.8 208.008V204.392H157.296ZM163.036 204.264C164.37 204.264 165.394 204.584 166.108 205.224C166.823 205.853 167.18 206.808 167.18 208.088V213H164.844V211.928C164.375 212.728 163.5 213.128 162.22 213.128C161.559 213.128 160.983 213.016 160.492 212.792C160.012 212.568 159.644 212.259 159.388 211.864C159.132 211.469 159.004 211.021 159.004 210.52C159.004 209.72 159.303 209.091 159.9 208.632C160.508 208.173 161.442 207.944 162.7 207.944H164.684C164.684 207.4 164.519 206.984 164.188 206.696C163.858 206.397 163.362 206.248 162.7 206.248C162.242 206.248 161.788 206.323 161.34 206.472C160.903 206.611 160.53 206.803 160.22 207.048L159.324 205.304C159.794 204.973 160.354 204.717 161.004 204.536C161.666 204.355 162.343 204.264 163.036 204.264ZM162.844 211.448C163.271 211.448 163.65 211.352 163.98 211.16C164.311 210.957 164.546 210.664 164.684 210.28V209.4H162.972C161.948 209.4 161.436 209.736 161.436 210.408C161.436 210.728 161.559 210.984 161.804 211.176C162.06 211.357 162.407 211.448 162.844 211.448ZM177.748 213V207.848L175.172 212.168H174.116L171.604 207.832V213H169.348V204.392H171.956L174.708 209.368L177.636 204.392H179.972L180.004 213H177.748Z" fill="#545365"/>
</svg>
