<svg width="290" height="250" viewBox="0 0 290 250" fill="none" xmlns="http://www.w3.org/2000/svg">
<rect width="290" height="250" fill="#FFF5E4"/>
<path d="M164 61V59.7021C164 57.1152 166.135 55 168.743 55H190.257C192.866 55 195 57.1159 195 59.7021V79.3343C195 81.9204 192.558 84.0363 189.948 84.0363H189V103.298C189 105.884 186.866 108 184.257 108H174.743C172.134 108 170 105.884 170 103.298V102M123 102V103.298C123 105.884 120.866 108 118.257 108H108.743C106.134 108 104 105.884 104 103.298V84.0363H103.052C100.443 84.0363 98 81.9204 98 79.3343V59.7021C98 57.1159 100.134 55 102.743 55H124.257C126.865 55 129 57.1152 129 59.7021V61M189 41.4825C189 46.7196 184.783 50.9651 179.5 50.9651C174.217 50.9651 170 46.7196 170 41.4825C170 36.2455 174.217 32 179.5 32C184.783 32 189 36.2455 189 41.4825ZM129 71.7013C129 69.1159 131.055 66.9992 133.654 67H159.257C161.866 67 164 69.1159 164 71.7021V96.3393C164 98.9263 162.179 101 159.57 101H158V123.298C158 125.884 155.866 128 153.257 128H139.743C137.134 128 135 125.884 135 123.298V101H133.271C130.662 101 129 99.0038 129 96.4177V71.7013ZM157.529 52.2973C157.529 58.3134 152.609 63.1905 146.54 63.1905C140.471 63.1905 135.551 58.3134 135.551 52.2973C135.551 46.2812 140.471 41.4042 146.54 41.4042C152.609 41.4042 157.529 46.2812 157.529 52.2973ZM104 41.4825C104 46.7196 108.217 50.9651 113.5 50.9651C118.783 50.9651 123 46.7196 123 41.4825C123 36.2455 118.783 32 113.5 32C108.217 32 104 36.2455 104 41.4825Z" stroke="#F6A219" stroke-width="2"/>
<path d="M78.1576 157.8V169H76.5896V159.192H70.0936V169H68.5096V157.8H78.1576ZM85.8903 160.44C86.7116 160.44 87.4476 160.621 88.0983 160.984C88.7489 161.347 89.2556 161.853 89.6183 162.504C89.9916 163.155 90.1783 163.907 90.1783 164.76C90.1783 165.613 89.9916 166.371 89.6183 167.032C89.2556 167.683 88.7489 168.189 88.0983 168.552C87.4476 168.915 86.7116 169.096 85.8903 169.096C85.2823 169.096 84.7223 168.979 84.2103 168.744C83.7089 168.509 83.2823 168.168 82.9303 167.72V172.104H81.3943V160.52H82.8663V161.864C83.2076 161.395 83.6396 161.043 84.1623 160.808C84.6849 160.563 85.2609 160.44 85.8903 160.44ZM85.7623 167.752C86.3063 167.752 86.7916 167.629 87.2183 167.384C87.6556 167.128 87.9969 166.776 88.2423 166.328C88.4983 165.869 88.6263 165.347 88.6263 164.76C88.6263 164.173 88.4983 163.656 88.2423 163.208C87.9969 162.749 87.6556 162.397 87.2183 162.152C86.7916 161.907 86.3063 161.784 85.7623 161.784C85.2289 161.784 84.7436 161.912 84.3063 162.168C83.8796 162.413 83.5383 162.76 83.2823 163.208C83.0369 163.656 82.9143 164.173 82.9143 164.76C82.9143 165.347 83.0369 165.869 83.2823 166.328C83.5276 166.776 83.8689 167.128 84.3063 167.384C84.7436 167.629 85.2289 167.752 85.7623 167.752ZM96.0419 169.096C95.1992 169.096 94.4419 168.909 93.7699 168.536C93.0979 168.163 92.5699 167.651 92.1859 167C91.8125 166.339 91.6259 165.592 91.6259 164.76C91.6259 163.928 91.8125 163.187 92.1859 162.536C92.5699 161.875 93.0979 161.363 93.7699 161C94.4419 160.627 95.1992 160.44 96.0419 160.44C96.8845 160.44 97.6365 160.627 98.2979 161C98.9699 161.363 99.4925 161.875 99.8659 162.536C100.25 163.187 100.442 163.928 100.442 164.76C100.442 165.592 100.25 166.339 99.8659 167C99.4925 167.651 98.9699 168.163 98.2979 168.536C97.6365 168.909 96.8845 169.096 96.0419 169.096ZM96.0419 167.752C96.5859 167.752 97.0712 167.629 97.4979 167.384C97.9352 167.128 98.2765 166.776 98.5219 166.328C98.7672 165.869 98.8899 165.347 98.8899 164.76C98.8899 164.173 98.7672 163.656 98.5219 163.208C98.2765 162.749 97.9352 162.397 97.4979 162.152C97.0712 161.907 96.5859 161.784 96.0419 161.784C95.4979 161.784 95.0072 161.907 94.5699 162.152C94.1432 162.397 93.8019 162.749 93.5459 163.208C93.3005 163.656 93.1779 164.173 93.1779 164.76C93.1779 165.347 93.3005 165.869 93.5459 166.328C93.8019 166.776 94.1432 167.128 94.5699 167.384C95.0072 167.629 95.4979 167.752 96.0419 167.752ZM113.364 164.744C113.364 166.056 112.927 167.091 112.052 167.848C111.177 168.605 109.945 169.027 108.356 169.112V172.104H106.852V169.112C105.263 169.027 104.031 168.611 103.156 167.864C102.292 167.107 101.86 166.067 101.86 164.744C101.86 163.432 102.292 162.408 103.156 161.672C104.02 160.936 105.252 160.525 106.852 160.44V157.128H108.356V160.44C109.945 160.525 111.177 160.941 112.052 161.688C112.927 162.424 113.364 163.443 113.364 164.744ZM103.38 164.744C103.38 165.651 103.668 166.36 104.244 166.872C104.831 167.384 105.7 167.677 106.852 167.752V161.8C105.689 161.875 104.82 162.163 104.244 162.664C103.668 163.165 103.38 163.859 103.38 164.744ZM108.356 167.768C110.681 167.587 111.844 166.579 111.844 164.744C111.844 163.848 111.551 163.155 110.964 162.664C110.377 162.163 109.508 161.875 108.356 161.8V167.768ZM123.199 164.808C123.199 164.925 123.188 165.08 123.167 165.272H116.287C116.383 166.019 116.708 166.621 117.263 167.08C117.828 167.528 118.527 167.752 119.359 167.752C120.372 167.752 121.188 167.411 121.807 166.728L122.655 167.72C122.271 168.168 121.791 168.509 121.215 168.744C120.65 168.979 120.015 169.096 119.311 169.096C118.415 169.096 117.62 168.915 116.927 168.552C116.234 168.179 115.695 167.661 115.311 167C114.938 166.339 114.751 165.592 114.751 164.76C114.751 163.939 114.932 163.197 115.295 162.536C115.668 161.875 116.175 161.363 116.815 161C117.466 160.627 118.196 160.44 119.007 160.44C119.818 160.44 120.538 160.627 121.167 161C121.807 161.363 122.303 161.875 122.655 162.536C123.018 163.197 123.199 163.955 123.199 164.808ZM119.007 161.736C118.271 161.736 117.652 161.96 117.151 162.408C116.66 162.856 116.372 163.443 116.287 164.168H121.727C121.642 163.453 121.348 162.872 120.847 162.424C120.356 161.965 119.743 161.736 119.007 161.736ZM129.278 169.096C128.414 169.096 127.64 168.909 126.958 168.536C126.286 168.163 125.758 167.651 125.374 167C124.99 166.339 124.798 165.592 124.798 164.76C124.798 163.928 124.99 163.187 125.374 162.536C125.758 161.875 126.286 161.363 126.958 161C127.64 160.627 128.414 160.44 129.278 160.44C130.046 160.44 130.728 160.595 131.326 160.904C131.934 161.213 132.403 161.661 132.734 162.248L131.566 163C131.299 162.595 130.968 162.291 130.574 162.088C130.179 161.885 129.742 161.784 129.262 161.784C128.707 161.784 128.206 161.907 127.758 162.152C127.32 162.397 126.974 162.749 126.718 163.208C126.472 163.656 126.35 164.173 126.35 164.76C126.35 165.357 126.472 165.885 126.718 166.344C126.974 166.792 127.32 167.139 127.758 167.384C128.206 167.629 128.707 167.752 129.262 167.752C129.742 167.752 130.179 167.651 130.574 167.448C130.968 167.245 131.299 166.941 131.566 166.536L132.734 167.272C132.403 167.859 131.934 168.312 131.326 168.632C130.728 168.941 130.046 169.096 129.278 169.096ZM138.293 169.096C137.429 169.096 136.656 168.909 135.973 168.536C135.301 168.163 134.773 167.651 134.389 167C134.005 166.339 133.813 165.592 133.813 164.76C133.813 163.928 134.005 163.187 134.389 162.536C134.773 161.875 135.301 161.363 135.973 161C136.656 160.627 137.429 160.44 138.293 160.44C139.061 160.44 139.744 160.595 140.341 160.904C140.949 161.213 141.419 161.661 141.749 162.248L140.581 163C140.315 162.595 139.984 162.291 139.589 162.088C139.195 161.885 138.757 161.784 138.277 161.784C137.723 161.784 137.221 161.907 136.773 162.152C136.336 162.397 135.989 162.749 135.733 163.208C135.488 163.656 135.365 164.173 135.365 164.76C135.365 165.357 135.488 165.885 135.733 166.344C135.989 166.792 136.336 167.139 136.773 167.384C137.221 167.629 137.723 167.752 138.277 167.752C138.757 167.752 139.195 167.651 139.589 167.448C139.984 167.245 140.315 166.941 140.581 166.536L141.749 167.272C141.419 167.859 140.949 168.312 140.341 168.632C139.744 168.941 139.061 169.096 138.293 169.096ZM143.738 160.52H145.274V166.696L150.474 160.52H151.866V169H150.33V162.824L145.146 169H143.738V160.52ZM154.847 160.52H156.383V164.12H161.215V160.52H162.751V169H161.215V165.448H156.383V169H154.847V160.52ZM168.762 160.44C169.935 160.44 170.831 160.728 171.45 161.304C172.079 161.88 172.394 162.739 172.394 163.88V169H170.938V167.88C170.682 168.275 170.314 168.579 169.834 168.792C169.365 168.995 168.805 169.096 168.154 169.096C167.205 169.096 166.442 168.867 165.866 168.408C165.301 167.949 165.018 167.347 165.018 166.6C165.018 165.853 165.29 165.256 165.834 164.808C166.378 164.349 167.242 164.12 168.426 164.12H170.858V163.816C170.858 163.155 170.666 162.648 170.282 162.296C169.898 161.944 169.333 161.768 168.586 161.768C168.085 161.768 167.594 161.853 167.114 162.024C166.634 162.184 166.229 162.403 165.898 162.68L165.258 161.528C165.695 161.176 166.218 160.909 166.826 160.728C167.434 160.536 168.079 160.44 168.762 160.44ZM168.41 167.912C168.997 167.912 169.503 167.784 169.93 167.528C170.357 167.261 170.666 166.888 170.858 166.408V165.224H168.49C167.189 165.224 166.538 165.661 166.538 166.536C166.538 166.963 166.703 167.299 167.034 167.544C167.365 167.789 167.823 167.912 168.41 167.912ZM182.44 160.52V169H180.904V161.864H177.256L177.16 163.752C177.107 164.893 177.005 165.848 176.856 166.616C176.707 167.373 176.461 167.981 176.12 168.44C175.779 168.899 175.304 169.128 174.696 169.128C174.419 169.128 174.104 169.08 173.752 168.984L173.848 167.688C173.987 167.72 174.115 167.736 174.232 167.736C174.659 167.736 174.979 167.549 175.192 167.176C175.405 166.803 175.544 166.36 175.608 165.848C175.672 165.336 175.731 164.605 175.784 163.656L175.928 160.52H182.44ZM189.33 163.4C190.407 163.411 191.229 163.656 191.794 164.136C192.359 164.616 192.642 165.293 192.642 166.168C192.642 167.085 192.333 167.795 191.714 168.296C191.106 168.787 190.231 169.027 189.09 169.016L185.41 169V160.52H186.946V163.384L189.33 163.4ZM188.962 167.848C189.655 167.859 190.178 167.72 190.53 167.432C190.893 167.144 191.074 166.717 191.074 166.152C191.074 165.597 190.898 165.192 190.546 164.936C190.205 164.68 189.677 164.547 188.962 164.536L186.946 164.504V167.832L188.962 167.848ZM194.613 160.52H196.149V164.12H200.981V160.52H202.517V169H200.981V165.448H196.149V169H194.613V160.52ZM208.528 160.44C209.701 160.44 210.597 160.728 211.216 161.304C211.845 161.88 212.16 162.739 212.16 163.88V169H210.704V167.88C210.448 168.275 210.08 168.579 209.6 168.792C209.13 168.995 208.57 169.096 207.92 169.096C206.97 169.096 206.208 168.867 205.632 168.408C205.066 167.949 204.784 167.347 204.784 166.6C204.784 165.853 205.056 165.256 205.6 164.808C206.144 164.349 207.008 164.12 208.192 164.12H210.624V163.816C210.624 163.155 210.432 162.648 210.048 162.296C209.664 161.944 209.098 161.768 208.352 161.768C207.85 161.768 207.36 161.853 206.88 162.024C206.4 162.184 205.994 162.403 205.664 162.68L205.024 161.528C205.461 161.176 205.984 160.909 206.592 160.728C207.2 160.536 207.845 160.44 208.528 160.44ZM208.176 167.912C208.762 167.912 209.269 167.784 209.696 167.528C210.122 167.261 210.432 166.888 210.624 166.408V165.224H208.256C206.954 165.224 206.304 165.661 206.304 166.536C206.304 166.963 206.469 167.299 206.8 167.544C207.13 167.789 207.589 167.912 208.176 167.912ZM221.726 160.52V169H220.35V166.312H217.886H217.71L215.854 169H214.206L216.27 166.104C215.63 165.912 215.139 165.597 214.798 165.16C214.456 164.712 214.286 164.157 214.286 163.496C214.286 162.525 214.616 161.789 215.278 161.288C215.939 160.776 216.851 160.52 218.014 160.52H221.726ZM215.854 163.544C215.854 164.109 216.03 164.531 216.382 164.808C216.744 165.075 217.283 165.208 217.998 165.208H220.35V161.864H218.062C216.59 161.864 215.854 162.424 215.854 163.544ZM63.3465 187.416H61.5865V191H60.0505V182.52H61.5865V186.104H63.3785L66.1305 182.52H67.7785L64.5625 186.6L68.0025 191H66.1945L63.3465 187.416ZM72.9638 191.096C72.1211 191.096 71.3638 190.909 70.6918 190.536C70.0198 190.163 69.4918 189.651 69.1078 189C68.7344 188.339 68.5478 187.592 68.5478 186.76C68.5478 185.928 68.7344 185.187 69.1078 184.536C69.4918 183.875 70.0198 183.363 70.6918 183C71.3638 182.627 72.1211 182.44 72.9638 182.44C73.8064 182.44 74.5584 182.627 75.2198 183C75.8918 183.363 76.4144 183.875 76.7878 184.536C77.1718 185.187 77.3638 185.928 77.3638 186.76C77.3638 187.592 77.1718 188.339 76.7878 189C76.4144 189.651 75.8918 190.163 75.2198 190.536C74.5584 190.909 73.8064 191.096 72.9638 191.096ZM72.9638 189.752C73.5078 189.752 73.9931 189.629 74.4198 189.384C74.8571 189.128 75.1984 188.776 75.4438 188.328C75.6891 187.869 75.8118 187.347 75.8118 186.76C75.8118 186.173 75.6891 185.656 75.4438 185.208C75.1984 184.749 74.8571 184.397 74.4198 184.152C73.9931 183.907 73.5078 183.784 72.9638 183.784C72.4198 183.784 71.9291 183.907 71.4918 184.152C71.0651 184.397 70.7238 184.749 70.4678 185.208C70.2224 185.656 70.0998 186.173 70.0998 186.76C70.0998 187.347 70.2224 187.869 70.4678 188.328C70.7238 188.776 71.0651 189.128 71.4918 189.384C71.9291 189.629 72.4198 189.752 72.9638 189.752ZM89.3578 182.52V191H87.9658V184.808L84.7978 190.04H84.1258L80.9898 184.792V191H79.5818V182.52H81.1658L84.4938 188.248L87.9178 182.52H89.3578ZM95.3714 182.44C96.5447 182.44 97.4407 182.728 98.0594 183.304C98.6887 183.88 99.0034 184.739 99.0034 185.88V191H97.5474V189.88C97.2914 190.275 96.9234 190.579 96.4434 190.792C95.974 190.995 95.414 191.096 94.7634 191.096C93.814 191.096 93.0514 190.867 92.4754 190.408C91.91 189.949 91.6274 189.347 91.6274 188.6C91.6274 187.853 91.8994 187.256 92.4434 186.808C92.9874 186.349 93.8514 186.12 95.0354 186.12H97.4674V185.816C97.4674 185.155 97.2754 184.648 96.8914 184.296C96.5074 183.944 95.942 183.768 95.1954 183.768C94.694 183.768 94.2034 183.853 93.7234 184.024C93.2434 184.184 92.838 184.403 92.5074 184.68L91.8674 183.528C92.3047 183.176 92.8274 182.909 93.4354 182.728C94.0434 182.536 94.6887 182.44 95.3714 182.44ZM95.0194 189.912C95.606 189.912 96.1127 189.784 96.5394 189.528C96.966 189.261 97.2754 188.888 97.4674 188.408V187.224H95.0994C93.798 187.224 93.1474 187.661 93.1474 188.536C93.1474 188.963 93.3127 189.299 93.6434 189.544C93.974 189.789 94.4327 189.912 95.0194 189.912ZM101.769 182.52H103.305V186.12H108.137V182.52H109.673V191H108.137V187.448H103.305V191H101.769V182.52ZM121.284 189.656V192.968H119.844V191H112.756V192.968H111.3V189.656H111.748C112.292 189.624 112.665 189.24 112.868 188.504C113.071 187.768 113.209 186.728 113.284 185.384L113.412 182.52H119.988V189.656H121.284ZM114.692 185.496C114.649 186.563 114.559 187.448 114.42 188.152C114.292 188.845 114.052 189.347 113.7 189.656H118.452V183.864H114.772L114.692 185.496ZM126.309 182.44C127.482 182.44 128.378 182.728 128.997 183.304C129.626 183.88 129.941 184.739 129.941 185.88V191H128.485V189.88C128.229 190.275 127.861 190.579 127.381 190.792C126.912 190.995 126.352 191.096 125.701 191.096C124.752 191.096 123.989 190.867 123.413 190.408C122.848 189.949 122.565 189.347 122.565 188.6C122.565 187.853 122.837 187.256 123.381 186.808C123.925 186.349 124.789 186.12 125.973 186.12H128.405V185.816C128.405 185.155 128.213 184.648 127.829 184.296C127.445 183.944 126.88 183.768 126.133 183.768C125.632 183.768 125.141 183.853 124.661 184.024C124.181 184.184 123.776 184.403 123.445 184.68L122.805 183.528C123.242 183.176 123.765 182.909 124.373 182.728C124.981 182.536 125.626 182.44 126.309 182.44ZM125.957 189.912C126.544 189.912 127.05 189.784 127.477 189.528C127.904 189.261 128.213 188.888 128.405 188.408V187.224H126.037C124.736 187.224 124.085 187.661 124.085 188.536C124.085 188.963 124.25 189.299 124.581 189.544C124.912 189.789 125.37 189.912 125.957 189.912ZM133.059 188.904C133.357 188.904 133.603 189.011 133.795 189.224C133.997 189.427 134.099 189.683 134.099 189.992C134.099 190.152 134.077 190.307 134.035 190.456C134.003 190.605 133.933 190.835 133.827 191.144L133.075 193.368H132.067L132.659 190.984C132.456 190.909 132.291 190.787 132.163 190.616C132.045 190.435 131.987 190.227 131.987 189.992C131.987 189.672 132.088 189.411 132.291 189.208C132.493 189.005 132.749 188.904 133.059 188.904ZM144.437 191.128C143.519 191.128 142.693 190.941 141.957 190.568C141.231 190.184 140.661 189.656 140.245 188.984C139.839 188.312 139.637 187.549 139.637 186.696C139.637 185.843 139.839 185.08 140.245 184.408C140.661 183.736 141.231 183.213 141.957 182.84C142.693 182.456 143.519 182.264 144.437 182.264C145.343 182.264 146.133 182.456 146.805 182.84C147.487 183.213 147.983 183.752 148.293 184.456L146.357 185.496C145.909 184.707 145.263 184.312 144.421 184.312C143.77 184.312 143.231 184.525 142.805 184.952C142.378 185.379 142.165 185.96 142.165 186.696C142.165 187.432 142.378 188.013 142.805 188.44C143.231 188.867 143.77 189.08 144.421 189.08C145.274 189.08 145.919 188.685 146.357 187.896L148.293 188.952C147.983 189.635 147.487 190.168 146.805 190.552C146.133 190.936 145.343 191.128 144.437 191.128ZM158.369 182.392V191H155.873V184.44H152.289V191H149.809V182.392H158.369ZM164.795 191.128C163.888 191.128 163.072 190.941 162.347 190.568C161.632 190.184 161.072 189.656 160.667 188.984C160.261 188.312 160.059 187.549 160.059 186.696C160.059 185.843 160.261 185.08 160.667 184.408C161.072 183.736 161.632 183.213 162.347 182.84C163.072 182.456 163.888 182.264 164.795 182.264C165.701 182.264 166.512 182.456 167.227 182.84C167.941 183.213 168.501 183.736 168.907 184.408C169.312 185.08 169.515 185.843 169.515 186.696C169.515 187.549 169.312 188.312 168.907 188.984C168.501 189.656 167.941 190.184 167.227 190.568C166.512 190.941 165.701 191.128 164.795 191.128ZM164.795 189.08C165.435 189.08 165.957 188.867 166.363 188.44C166.779 188.003 166.987 187.421 166.987 186.696C166.987 185.971 166.779 185.395 166.363 184.968C165.957 184.531 165.435 184.312 164.795 184.312C164.155 184.312 163.627 184.531 163.211 184.968C162.795 185.395 162.587 185.971 162.587 186.696C162.587 187.421 162.795 188.003 163.211 188.44C163.627 188.867 164.155 189.08 164.795 189.08ZM175.327 191.128C174.41 191.128 173.583 190.941 172.847 190.568C172.122 190.184 171.551 189.656 171.135 188.984C170.73 188.312 170.527 187.549 170.527 186.696C170.527 185.843 170.73 185.08 171.135 184.408C171.551 183.736 172.122 183.213 172.847 182.84C173.583 182.456 174.41 182.264 175.327 182.264C176.234 182.264 177.023 182.456 177.695 182.84C178.378 183.213 178.874 183.752 179.183 184.456L177.247 185.496C176.799 184.707 176.154 184.312 175.311 184.312C174.661 184.312 174.122 184.525 173.695 184.952C173.269 185.379 173.055 185.96 173.055 186.696C173.055 187.432 173.269 188.013 173.695 188.44C174.122 188.867 174.661 189.08 175.311 189.08C176.165 189.08 176.81 188.685 177.247 187.896L179.183 188.952C178.874 189.635 178.378 190.168 177.695 190.552C177.023 190.936 176.234 191.128 175.327 191.128ZM184.623 191.128C183.716 191.128 182.9 190.941 182.175 190.568C181.46 190.184 180.9 189.656 180.495 188.984C180.089 188.312 179.887 187.549 179.887 186.696C179.887 185.843 180.089 185.08 180.495 184.408C180.9 183.736 181.46 183.213 182.175 182.84C182.9 182.456 183.716 182.264 184.623 182.264C185.529 182.264 186.34 182.456 187.055 182.84C187.769 183.213 188.329 183.736 188.735 184.408C189.14 185.08 189.343 185.843 189.343 186.696C189.343 187.549 189.14 188.312 188.735 188.984C188.329 189.656 187.769 190.184 187.055 190.568C186.34 190.941 185.529 191.128 184.623 191.128ZM184.623 189.08C185.263 189.08 185.785 188.867 186.191 188.44C186.607 188.003 186.815 187.421 186.815 186.696C186.815 185.971 186.607 185.395 186.191 184.968C185.785 184.531 185.263 184.312 184.623 184.312C183.983 184.312 183.455 184.531 183.039 184.968C182.623 185.395 182.415 185.971 182.415 186.696C182.415 187.421 182.623 188.003 183.039 188.44C183.455 188.867 183.983 189.08 184.623 189.08ZM196.035 182.984C196.857 182.984 197.577 183.155 198.195 183.496C198.814 183.827 199.289 184.296 199.619 184.904C199.961 185.512 200.131 186.216 200.131 187.016C200.131 187.837 199.929 188.568 199.523 189.208C199.129 189.837 198.574 190.328 197.859 190.68C197.145 191.021 196.334 191.192 195.427 191.192C193.923 191.192 192.739 190.712 191.875 189.752C191.022 188.781 190.595 187.363 190.595 185.496C190.595 183.768 190.969 182.392 191.715 181.368C192.473 180.333 193.63 179.656 195.187 179.336L199.283 178.52L199.619 180.664L196.003 181.384C195.022 181.576 194.291 181.896 193.811 182.344C193.342 182.792 193.065 183.427 192.979 184.248C193.353 183.843 193.801 183.533 194.323 183.32C194.846 183.096 195.417 182.984 196.035 182.984ZM195.443 189.256C196.083 189.256 196.595 189.048 196.979 188.632C197.374 188.216 197.571 187.688 197.571 187.048C197.571 186.397 197.374 185.88 196.979 185.496C196.595 185.112 196.083 184.92 195.443 184.92C194.793 184.92 194.27 185.112 193.875 185.496C193.481 185.88 193.283 186.397 193.283 187.048C193.283 187.699 193.486 188.232 193.891 188.648C194.297 189.053 194.814 189.256 195.443 189.256ZM201.825 182.392H204.305V185.752H208.049V182.392H210.545V191H208.049V187.784H204.305V191H201.825V182.392ZM216.278 182.264C217.612 182.264 218.636 182.584 219.35 183.224C220.065 183.853 220.422 184.808 220.422 186.088V191H218.086V189.928C217.617 190.728 216.742 191.128 215.462 191.128C214.801 191.128 214.225 191.016 213.734 190.792C213.254 190.568 212.886 190.259 212.63 189.864C212.374 189.469 212.246 189.021 212.246 188.52C212.246 187.72 212.545 187.091 213.142 186.632C213.75 186.173 214.684 185.944 215.942 185.944H217.926C217.926 185.4 217.761 184.984 217.43 184.696C217.1 184.397 216.604 184.248 215.942 184.248C215.484 184.248 215.03 184.323 214.582 184.472C214.145 184.611 213.772 184.803 213.462 185.048L212.566 183.304C213.036 182.973 213.596 182.717 214.246 182.536C214.908 182.355 215.585 182.264 216.278 182.264ZM216.086 189.448C216.513 189.448 216.892 189.352 217.222 189.16C217.553 188.957 217.788 188.664 217.926 188.28V187.4H216.214C215.19 187.4 214.678 187.736 214.678 188.408C214.678 188.728 214.801 188.984 215.046 189.176C215.302 189.357 215.649 189.448 216.086 189.448ZM230.239 182.392V191H228.015V188.536H226.175L224.543 191H221.887L223.855 188.184C223.257 187.949 222.799 187.613 222.479 187.176C222.169 186.728 222.015 186.189 222.015 185.56C222.015 184.547 222.377 183.768 223.103 183.224C223.839 182.669 224.847 182.392 226.127 182.392H230.239ZM226.175 184.424C225.641 184.424 225.236 184.52 224.959 184.712C224.692 184.904 224.559 185.213 224.559 185.64C224.559 186.067 224.687 186.381 224.943 186.584C225.209 186.776 225.609 186.872 226.143 186.872H228.015V184.424H226.175ZM53.4126 204.264C54.2126 204.264 54.938 204.451 55.5886 204.824C56.25 205.187 56.7673 205.704 57.1406 206.376C57.514 207.037 57.7006 207.811 57.7006 208.696C57.7006 209.581 57.514 210.36 57.1406 211.032C56.7673 211.693 56.25 212.211 55.5886 212.584C54.938 212.947 54.2126 213.128 53.4126 213.128C52.314 213.128 51.45 212.781 50.8206 212.088V216.104H48.3246V204.392H50.7086V205.384C51.3273 204.637 52.2286 204.264 53.4126 204.264ZM52.9806 211.08C53.6206 211.08 54.1433 210.867 54.5486 210.44C54.9646 210.003 55.1726 209.421 55.1726 208.696C55.1726 207.971 54.9646 207.395 54.5486 206.968C54.1433 206.531 53.6206 206.312 52.9806 206.312C52.3406 206.312 51.8126 206.531 51.3966 206.968C50.9913 207.395 50.7886 207.971 50.7886 208.696C50.7886 209.421 50.9913 210.003 51.3966 210.44C51.8126 210.867 52.3406 211.08 52.9806 211.08ZM67.818 208.728C67.818 208.76 67.802 208.984 67.77 209.4H61.258C61.3753 209.933 61.6527 210.355 62.09 210.664C62.5273 210.973 63.0713 211.128 63.722 211.128C64.17 211.128 64.5647 211.064 64.906 210.936C65.258 210.797 65.5833 210.584 65.882 210.296L67.21 211.736C66.3993 212.664 65.2153 213.128 63.658 213.128C62.6873 213.128 61.8287 212.941 61.082 212.568C60.3353 212.184 59.7593 211.656 59.354 210.984C58.9487 210.312 58.746 209.549 58.746 208.696C58.746 207.853 58.9433 207.096 59.338 206.424C59.7433 205.741 60.2927 205.213 60.986 204.84C61.69 204.456 62.474 204.264 63.338 204.264C64.1807 204.264 64.9433 204.445 65.626 204.808C66.3087 205.171 66.842 205.693 67.226 206.376C67.6207 207.048 67.818 207.832 67.818 208.728ZM63.354 206.152C62.7887 206.152 62.314 206.312 61.93 206.632C61.546 206.952 61.3113 207.389 61.226 207.944H65.466C65.3807 207.4 65.146 206.968 64.762 206.648C64.378 206.317 63.9087 206.152 63.354 206.152ZM82.8673 204.392V213H69.7313V204.392H72.2113V210.952H75.0753V204.392H77.5553V210.952H80.3873V204.392H82.8673ZM85.2625 204.392H87.7425V209.512L91.9345 204.392H94.2225V213H91.7425V207.88L87.5665 213H85.2625V204.392ZM103.854 206.44H100.942V213H98.4619V206.44H95.5499V204.392H103.854V206.44ZM109.84 207.144C110.96 207.155 111.819 207.411 112.416 207.912C113.014 208.403 113.312 209.101 113.312 210.008C113.312 210.957 112.976 211.699 112.304 212.232C111.643 212.755 110.71 213.016 109.504 213.016L105.184 213V204.392H107.664V207.144H109.84ZM109.28 211.24C109.76 211.251 110.128 211.149 110.384 210.936C110.64 210.723 110.768 210.403 110.768 209.976C110.768 209.56 110.64 209.256 110.384 209.064C110.139 208.872 109.771 208.771 109.28 208.76L107.664 208.744V211.24H109.28ZM127.659 204.392V213H125.163V206.44H122.443L122.363 207.96C122.32 209.091 122.214 210.029 122.043 210.776C121.872 211.523 121.595 212.109 121.211 212.536C120.827 212.963 120.294 213.176 119.611 213.176C119.248 213.176 118.816 213.112 118.315 212.984L118.443 210.936C118.614 210.957 118.736 210.968 118.811 210.968C119.184 210.968 119.462 210.835 119.643 210.568C119.835 210.291 119.963 209.944 120.027 209.528C120.091 209.101 120.139 208.541 120.171 207.848L120.299 204.392H127.659ZM138.203 204.264C139.078 204.264 139.862 204.456 140.555 204.84C141.249 205.213 141.793 205.736 142.187 206.408C142.582 207.08 142.779 207.843 142.779 208.696C142.779 209.549 142.582 210.312 142.187 210.984C141.793 211.656 141.249 212.184 140.555 212.568C139.862 212.941 139.078 213.128 138.203 213.128C137.446 213.128 136.753 212.989 136.123 212.712C135.494 212.424 134.971 212.024 134.555 211.512C134.139 210.989 133.862 210.392 133.723 209.72H132.539V213H130.059V204.392H132.539V207.56H133.739C133.985 206.557 134.507 205.757 135.307 205.16C136.107 204.563 137.073 204.264 138.203 204.264ZM138.203 211.08C138.811 211.08 139.313 210.867 139.707 210.44C140.113 210.003 140.315 209.421 140.315 208.696C140.315 207.96 140.113 207.379 139.707 206.952C139.313 206.525 138.811 206.312 138.203 206.312C137.585 206.312 137.073 206.525 136.667 206.952C136.273 207.379 136.075 207.96 136.075 208.696C136.075 209.421 136.273 210.003 136.667 210.44C137.073 210.867 137.585 211.08 138.203 211.08ZM149.489 204.984C150.31 204.984 151.03 205.155 151.649 205.496C152.267 205.827 152.742 206.296 153.073 206.904C153.414 207.512 153.585 208.216 153.585 209.016C153.585 209.837 153.382 210.568 152.977 211.208C152.582 211.837 152.027 212.328 151.312 212.68C150.598 213.021 149.787 213.192 148.881 213.192C147.377 213.192 146.193 212.712 145.329 211.752C144.475 210.781 144.049 209.363 144.049 207.496C144.049 205.768 144.422 204.392 145.169 203.368C145.926 202.333 147.083 201.656 148.641 201.336L152.737 200.52L153.073 202.664L149.457 203.384C148.475 203.576 147.745 203.896 147.265 204.344C146.795 204.792 146.518 205.427 146.433 206.248C146.806 205.843 147.254 205.533 147.777 205.32C148.299 205.096 148.87 204.984 149.489 204.984ZM148.897 211.256C149.537 211.256 150.049 211.048 150.433 210.632C150.827 210.216 151.025 209.688 151.025 209.048C151.025 208.397 150.827 207.88 150.433 207.496C150.049 207.112 149.537 206.92 148.897 206.92C148.246 206.92 147.723 207.112 147.329 207.496C146.934 207.88 146.737 208.397 146.737 209.048C146.737 209.699 146.939 210.232 147.345 210.648C147.75 211.053 148.267 211.256 148.897 211.256ZM159.31 213.128C158.403 213.128 157.587 212.941 156.862 212.568C156.147 212.184 155.587 211.656 155.182 210.984C154.777 210.312 154.574 209.549 154.574 208.696C154.574 207.843 154.777 207.08 155.182 206.408C155.587 205.736 156.147 205.213 156.862 204.84C157.587 204.456 158.403 204.264 159.31 204.264C160.217 204.264 161.027 204.456 161.742 204.84C162.457 205.213 163.017 205.736 163.422 206.408C163.827 207.08 164.03 207.843 164.03 208.696C164.03 209.549 163.827 210.312 163.422 210.984C163.017 211.656 162.457 212.184 161.742 212.568C161.027 212.941 160.217 213.128 159.31 213.128ZM159.31 211.08C159.95 211.08 160.473 210.867 160.878 210.44C161.294 210.003 161.502 209.421 161.502 208.696C161.502 207.971 161.294 207.395 160.878 206.968C160.473 206.531 159.95 206.312 159.31 206.312C158.67 206.312 158.142 206.531 157.726 206.968C157.31 207.395 157.102 207.971 157.102 208.696C157.102 209.421 157.31 210.003 157.726 210.44C158.142 210.867 158.67 211.08 159.31 211.08ZM165.747 204.392H168.227V209.512L172.419 204.392H174.707V213H172.227V207.88L168.051 213H165.747V204.392ZM170.067 203.464C168.19 203.464 167.246 202.637 167.235 200.984H168.867C168.878 201.357 168.979 201.651 169.171 201.864C169.374 202.067 169.667 202.168 170.051 202.168C170.435 202.168 170.728 202.067 170.931 201.864C171.144 201.651 171.251 201.357 171.251 200.984H172.915C172.904 202.637 171.955 203.464 170.067 203.464ZM188.214 208.504C189.227 208.845 189.734 209.528 189.734 210.552C189.734 211.331 189.44 211.933 188.854 212.36C188.267 212.787 187.392 213 186.23 213H181.638V204.392H186.038C187.115 204.392 187.958 204.589 188.566 204.984C189.174 205.368 189.477 205.912 189.477 206.616C189.477 207.043 189.366 207.421 189.142 207.752C188.928 208.072 188.619 208.323 188.214 208.504ZM183.926 207.928H185.814C186.688 207.928 187.126 207.619 187.126 207C187.126 206.392 186.688 206.088 185.814 206.088H183.926V207.928ZM186.022 211.304C186.939 211.304 187.398 210.989 187.398 210.36C187.398 210.029 187.291 209.789 187.078 209.64C186.864 209.48 186.528 209.4 186.07 209.4H183.926V211.304H186.022ZM195.623 213.128C194.716 213.128 193.9 212.941 193.175 212.568C192.46 212.184 191.9 211.656 191.495 210.984C191.089 210.312 190.887 209.549 190.887 208.696C190.887 207.843 191.089 207.08 191.495 206.408C191.9 205.736 192.46 205.213 193.175 204.84C193.9 204.456 194.716 204.264 195.623 204.264C196.529 204.264 197.34 204.456 198.055 204.84C198.769 205.213 199.329 205.736 199.735 206.408C200.14 207.08 200.343 207.843 200.343 208.696C200.343 209.549 200.14 210.312 199.735 210.984C199.329 211.656 198.769 212.184 198.055 212.568C197.34 212.941 196.529 213.128 195.623 213.128ZM195.623 211.08C196.263 211.08 196.785 210.867 197.191 210.44C197.607 210.003 197.815 209.421 197.815 208.696C197.815 207.971 197.607 207.395 197.191 206.968C196.785 206.531 196.263 206.312 195.623 206.312C194.983 206.312 194.455 206.531 194.039 206.968C193.623 207.395 193.415 207.971 193.415 208.696C193.415 209.421 193.623 210.003 194.039 210.44C194.455 210.867 194.983 211.08 195.623 211.08ZM210.619 204.392V213H208.123V206.44H204.539V213H202.059V204.392H210.619ZM218.085 204.264C218.885 204.264 219.61 204.451 220.26 204.824C220.922 205.187 221.439 205.704 221.812 206.376C222.186 207.037 222.373 207.811 222.373 208.696C222.373 209.581 222.186 210.36 221.812 211.032C221.439 211.693 220.922 212.211 220.26 212.584C219.61 212.947 218.885 213.128 218.085 213.128C216.986 213.128 216.122 212.781 215.493 212.088V216.104H212.997V204.392H215.381V205.384C215.999 204.637 216.901 204.264 218.085 204.264ZM217.653 211.08C218.293 211.08 218.815 210.867 219.221 210.44C219.637 210.003 219.845 209.421 219.845 208.696C219.845 207.971 219.637 207.395 219.221 206.968C218.815 206.531 218.293 206.312 217.653 206.312C217.013 206.312 216.485 206.531 216.069 206.968C215.663 207.395 215.461 207.971 215.461 208.696C215.461 209.421 215.663 210.003 216.069 210.44C216.485 210.867 217.013 211.08 217.653 211.08ZM228.154 213.128C227.247 213.128 226.431 212.941 225.706 212.568C224.991 212.184 224.431 211.656 224.026 210.984C223.621 210.312 223.418 209.549 223.418 208.696C223.418 207.843 223.621 207.08 224.026 206.408C224.431 205.736 224.991 205.213 225.706 204.84C226.431 204.456 227.247 204.264 228.154 204.264C229.061 204.264 229.871 204.456 230.586 204.84C231.301 205.213 231.861 205.736 232.266 206.408C232.671 207.08 232.874 207.843 232.874 208.696C232.874 209.549 232.671 210.312 232.266 210.984C231.861 211.656 231.301 212.184 230.586 212.568C229.871 212.941 229.061 213.128 228.154 213.128ZM228.154 211.08C228.794 211.08 229.317 210.867 229.722 210.44C230.138 210.003 230.346 209.421 230.346 208.696C230.346 207.971 230.138 207.395 229.722 206.968C229.317 206.531 228.794 206.312 228.154 206.312C227.514 206.312 226.986 206.531 226.57 206.968C226.154 207.395 225.946 207.971 225.946 208.696C225.946 209.421 226.154 210.003 226.57 210.44C226.986 210.867 227.514 211.08 228.154 211.08ZM238.687 213.128C237.769 213.128 236.943 212.941 236.207 212.568C235.481 212.184 234.911 211.656 234.495 210.984C234.089 210.312 233.887 209.549 233.887 208.696C233.887 207.843 234.089 207.08 234.495 206.408C234.911 205.736 235.481 205.213 236.207 204.84C236.943 204.456 237.769 204.264 238.687 204.264C239.593 204.264 240.383 204.456 241.055 204.84C241.737 205.213 242.233 205.752 242.543 206.456L240.607 207.496C240.159 206.707 239.513 206.312 238.671 206.312C238.02 206.312 237.481 206.525 237.055 206.952C236.628 207.379 236.415 207.96 236.415 208.696C236.415 209.432 236.628 210.013 237.055 210.44C237.481 210.867 238.02 211.08 238.671 211.08C239.524 211.08 240.169 210.685 240.607 209.896L242.543 210.952C242.233 211.635 241.737 212.168 241.055 212.552C240.383 212.936 239.593 213.128 238.687 213.128Z" fill="#545365"/>
</svg>
